<svg width="16" height="16" viewBox="0 0 16 16" fill="none" xmlns="http://www.w3.org/2000/svg">
<path d="M11.332 9.536C11.332 9.30554 11.332 9.19034 11.3667 9.08767C11.4675 8.78927 11.7332 8.67354 11.9994 8.55227C12.2987 8.41594 12.4483 8.3478 12.5966 8.3358C12.7649 8.3222 12.9335 8.35847 13.0774 8.4392C13.2681 8.5462 13.4011 8.7496 13.5373 8.915C14.1662 9.67887 14.4806 10.0609 14.5957 10.4821C14.6886 10.8219 14.6886 11.1774 14.5957 11.5173C14.4279 12.1316 13.8977 12.6466 13.5052 13.1233C13.3045 13.3671 13.2041 13.489 13.0774 13.5601C12.9335 13.6409 12.7649 13.6771 12.5966 13.6635C12.4483 13.6515 12.2987 13.5834 11.9994 13.4471C11.7332 13.3258 11.4675 13.2101 11.3667 12.9117C11.332 12.809 11.332 12.6938 11.332 12.4633V9.536Z" stroke="#0F1F2E" stroke-width="1.4"/>
<path d="M4.66536 9.53605C4.66536 9.24592 4.65722 8.98512 4.42264 8.78112C4.33732 8.70692 4.2242 8.65539 3.99797 8.55232C3.6987 8.41605 3.54907 8.34792 3.4008 8.33592C2.95597 8.29992 2.71664 8.60352 2.46012 8.91512C1.8312 9.67899 1.51674 10.0609 1.40167 10.4821C1.30882 10.8221 1.30882 11.1775 1.40167 11.5174C1.5695 12.1317 2.09971 12.6467 2.49217 13.1234C2.73956 13.4239 2.97588 13.698 3.4008 13.6637C3.54907 13.6517 3.6987 13.5835 3.99797 13.4472C4.2242 13.3441 4.33732 13.2926 4.42264 13.2184C4.65722 13.0144 4.66536 12.7537 4.66536 12.4635V9.53605Z" stroke="#0F1F2E" stroke-width="1.4"/>
<path d="M12.6654 8.33301V6.99967C12.6654 4.42235 10.576 2.33301 7.9987 2.33301C5.42137 2.33301 3.33203 4.42235 3.33203 6.99967V8.33301" stroke="#0F1F2E" stroke-width="1.4" stroke-linecap="square" stroke-linejoin="round"/>
</svg>
