<svg width="200" height="39" viewBox="0 0 200 39" fill="none" xmlns="http://www.w3.org/2000/svg">
<path d="M51.5265 17.2313C53.1427 17.4569 54.4207 18.0301 55.3603 18.9509C56.3 19.8718 56.7698 21.0088 56.7698 22.362C56.7698 24.091 55.9805 25.4629 54.4019 26.4777C52.8232 27.4926 50.4646 28 47.3261 28H39.602C39.151 28 38.9255 27.8215 38.9255 27.4644V27.3516C38.9255 27.1261 39.1134 26.7878 39.4893 26.3368C39.8651 25.8669 40.0531 25.3971 40.0531 24.9273V11.0577C40.0531 10.5879 39.8651 10.1274 39.4893 9.67637C39.1134 9.20653 38.9255 8.85885 38.9255 8.63333V8.52057C38.9255 8.1635 39.151 7.98496 39.602 7.98496H47.4107C49.8351 7.98496 51.6674 8.45479 52.9078 9.39447C54.167 10.3341 54.7965 11.5557 54.7965 13.0592C54.7965 14.1116 54.4958 15.0043 53.8944 15.7373C53.3119 16.4702 52.5225 16.9682 51.5265 17.2313ZM45.1273 11.4242V14.9761C45.1273 15.4272 45.2682 15.7842 45.5501 16.0474C45.8321 16.3105 46.1985 16.442 46.6496 16.442H48.0591C48.7732 16.442 49.3464 16.2071 49.7787 15.7373C50.2109 15.2486 50.4271 14.6003 50.4271 13.7921C50.4271 12.5894 50.1358 11.6497 49.5532 10.9731C48.9894 10.2966 48.2188 9.95827 47.2416 9.95827H46.4522C45.5689 9.95827 45.1273 10.4469 45.1273 11.4242ZM48.5947 26.0267C49.478 26.0267 50.1639 25.7636 50.6526 25.2374C51.16 24.6923 51.4137 23.9782 51.4137 23.0949C51.4137 21.9297 50.9533 20.8585 50.0324 19.8812C49.1303 18.904 47.8899 18.4153 46.3113 18.4153H45.1273V23.6305C45.1273 24.3259 45.3152 24.8991 45.6911 25.3501C46.0858 25.8012 46.6026 26.0267 47.2416 26.0267H48.5947ZM68.5058 23.5459C68.7125 23.3392 68.938 23.2828 69.1823 23.3768C69.4455 23.452 69.5676 23.6399 69.5488 23.9406C69.5112 24.8803 68.9662 25.8388 67.9138 26.816C66.8614 27.7933 65.4988 28.2819 63.8262 28.2819C61.7777 28.2819 60.1051 27.6241 58.8084 26.3086C57.5116 24.993 56.8632 23.2734 56.8632 21.1498C56.8632 19.1201 57.5398 17.4569 58.8929 16.1601C60.2648 14.8446 61.8999 14.1868 63.798 14.1868C65.5082 14.1868 66.8332 14.5815 67.7728 15.3708C68.7125 16.1601 69.1823 17.0528 69.1823 18.0489C69.1823 18.8382 68.8159 19.4208 68.0829 19.7967L62.4731 22.954C63.2436 24.1755 64.3148 24.7863 65.6868 24.7863C66.2694 24.7863 66.8144 24.6736 67.3218 24.448C67.848 24.2037 68.2427 23.903 68.5058 23.5459ZM63.2906 15.5681C62.7268 15.5681 62.2664 15.85 61.9093 16.4138C61.571 16.9776 61.4019 17.6824 61.4019 18.5281C61.4019 19.6557 61.5428 20.6424 61.8247 21.4881L64.4464 19.9094C64.935 19.5711 65.1793 19.0919 65.1793 18.4717C65.1793 17.8515 65.0196 17.2125 64.7001 16.5548C64.3994 15.897 63.9296 15.5681 63.2906 15.5681ZM75.476 28.2819C74.0477 28.2819 72.9201 27.8309 72.0932 26.9288C71.2851 26.0267 70.881 24.7393 70.881 23.0667V16.3856H69.8098C69.6219 16.3856 69.4621 16.3293 69.3306 16.2165C69.2178 16.0849 69.1614 15.9252 69.1614 15.7373V15.1171C69.1614 14.6848 69.3775 14.4687 69.8098 14.4687H70.3454C71.2099 14.4687 71.9523 14.215 72.5724 13.7076C73.1926 13.1814 73.5967 12.486 73.7846 11.6215C73.8786 11.1329 74.1323 10.8885 74.5458 10.8885H75.1941C75.7016 10.8885 75.9553 11.1329 75.9553 11.6215V14.4687H78.8589C79.0468 14.4687 79.1971 14.5345 79.3099 14.666C79.4415 14.7788 79.5072 14.9291 79.5072 15.1171V15.7373C79.5072 15.9252 79.4415 16.0849 79.3099 16.2165C79.1971 16.3293 79.0468 16.3856 78.8589 16.3856H75.9553V23.1513C75.9553 23.6211 76.0774 23.997 76.3217 24.2789C76.5661 24.542 76.8667 24.6736 77.2238 24.6736C78.0319 24.6736 78.6521 24.3259 79.0844 23.6305C79.2159 23.4614 79.3663 23.3674 79.5354 23.3486C79.7046 23.311 79.8455 23.3392 79.9583 23.4332C80.0898 23.5272 80.1556 23.6587 80.1556 23.8279C80.1556 25.0118 79.7327 26.0549 78.887 26.957C78.0601 27.8403 76.9231 28.2819 75.476 28.2819ZM85.7181 28.2819C84.2898 28.2819 83.1622 27.8309 82.3353 26.9288C81.5272 26.0267 81.1231 24.7393 81.1231 23.0667V16.3856H80.0519C79.8639 16.3856 79.7042 16.3293 79.5726 16.2165C79.4599 16.0849 79.4035 15.9252 79.4035 15.7373V15.1171C79.4035 14.6848 79.6196 14.4687 80.0519 14.4687H80.5875C81.452 14.4687 82.1943 14.215 82.8145 13.7076C83.4347 13.1814 83.8388 12.486 84.0267 11.6215C84.1207 11.1329 84.3744 10.8885 84.7878 10.8885H85.4362C85.9436 10.8885 86.1973 11.1329 86.1973 11.6215V14.4687H89.1009C89.2889 14.4687 89.4392 14.5345 89.552 14.666C89.6835 14.7788 89.7493 14.9291 89.7493 15.1171V15.7373C89.7493 15.9252 89.6835 16.0849 89.552 16.2165C89.4392 16.3293 89.2889 16.3856 89.1009 16.3856H86.1973V23.1513C86.1973 23.6211 86.3195 23.997 86.5638 24.2789C86.8081 24.542 87.1088 24.6736 87.4659 24.6736C88.274 24.6736 88.8942 24.3259 89.3264 23.6305C89.458 23.4614 89.6083 23.3674 89.7775 23.3486C89.9466 23.311 90.0876 23.3392 90.2003 23.4332C90.3319 23.5272 90.3977 23.6587 90.3977 23.8279C90.3977 25.0118 89.9748 26.0549 89.1291 26.957C88.3022 27.8403 87.1652 28.2819 85.7181 28.2819ZM101.544 23.5459C101.751 23.3392 101.977 23.2828 102.221 23.3768C102.484 23.452 102.606 23.6399 102.588 23.9406C102.55 24.8803 102.005 25.8388 100.952 26.816C99.9 27.7933 98.5375 28.2819 96.8649 28.2819C94.8164 28.2819 93.1438 27.6241 91.847 26.3086C90.5503 24.993 89.9019 23.2734 89.9019 21.1498C89.9019 19.1201 90.5785 17.4569 91.9316 16.1601C93.3035 14.8446 94.9386 14.1868 96.8367 14.1868C98.5469 14.1868 99.8719 14.5815 100.812 15.3708C101.751 16.1601 102.221 17.0528 102.221 18.0489C102.221 18.8382 101.855 19.4208 101.122 19.7967L95.5118 22.954C96.2823 24.1755 97.3535 24.7863 98.7255 24.7863C99.3081 24.7863 99.8531 24.6736 100.36 24.448C100.887 24.2037 101.281 23.903 101.544 23.5459ZM96.3293 15.5681C95.7655 15.5681 95.305 15.85 94.948 16.4138C94.6097 16.9776 94.4405 17.6824 94.4405 18.5281C94.4405 19.6557 94.5815 20.6424 94.8634 21.4881L97.4851 19.9094C97.9737 19.5711 98.218 19.0919 98.218 18.4717C98.218 17.8515 98.0583 17.2125 97.7388 16.5548C97.4381 15.897 96.9683 15.5681 96.3293 15.5681ZM112.095 14.1868C112.903 14.1868 113.542 14.4499 114.012 14.9761C114.5 15.5023 114.745 16.1695 114.745 16.9776C114.745 18.7442 114.021 19.6275 112.574 19.6275C111.992 19.6275 111.55 19.496 111.249 19.2328C110.948 18.9509 110.77 18.6409 110.714 18.3026C110.676 17.9643 110.582 17.6636 110.432 17.4005C110.281 17.1186 110.056 16.9776 109.755 16.9776C109.06 16.9776 108.712 17.8797 108.712 19.6839V24.9273C108.712 25.3971 108.956 25.8669 109.445 26.3368C109.952 26.7878 110.206 27.1261 110.206 27.3516V27.4644C110.206 27.8215 109.981 28 109.53 28H103.469C103.018 28 102.792 27.8215 102.792 27.4644V27.3516C102.792 27.1261 102.98 26.7878 103.356 26.3368C103.732 25.8669 103.92 25.3971 103.92 24.9273V19.3174C103.92 18.9415 103.807 18.6221 103.581 18.359C103.356 18.0958 103.13 17.8703 102.905 17.6824C102.679 17.4945 102.567 17.2877 102.567 17.0622V16.9776C102.567 16.6581 102.783 16.3856 103.215 16.1601L107.19 14.2996C107.566 14.168 107.829 14.1586 107.979 14.2714C108.129 14.3841 108.205 14.6003 108.205 14.9197V16.9776C108.844 15.1171 110.14 14.1868 112.095 14.1868ZM127.711 28.2819C124.967 28.2819 122.665 27.2295 120.804 25.1246C118.963 23.0197 118.042 20.5578 118.042 17.7388C118.042 14.8446 118.906 12.4578 120.635 10.5785C122.364 8.68032 124.629 7.73125 127.429 7.73125C129.647 7.73125 131.564 8.26686 133.18 9.33809C134.796 10.3905 135.604 11.6497 135.604 13.1156C135.604 13.7733 135.388 14.309 134.956 14.7224C134.542 15.1359 133.979 15.3426 133.264 15.3426C132.625 15.3426 132.052 15.1547 131.545 14.7788C131.037 14.3841 130.615 13.9143 130.276 13.3693C129.957 12.8243 129.628 12.2793 129.29 11.7343C128.951 11.1705 128.538 10.7006 128.049 10.3247C127.579 9.93008 127.034 9.73275 126.414 9.73275C125.475 9.73275 124.666 10.1744 123.99 11.0577C123.332 11.941 123.003 13.1344 123.003 14.6378C123.003 17.2877 123.642 19.4678 124.92 21.178C126.198 22.8694 127.673 23.7151 129.346 23.7151C129.966 23.7151 130.53 23.6211 131.037 23.4332C131.564 23.2453 132.024 22.9821 132.419 22.6439C132.832 22.2868 133.142 21.9767 133.349 21.7136C133.574 21.4505 133.828 21.1216 134.11 20.7269C134.373 20.4074 134.702 20.3041 135.097 20.4168C135.491 20.5108 135.679 20.7833 135.661 21.2344C135.585 23.1889 134.862 24.8521 133.49 26.224C132.137 27.5959 130.21 28.2819 127.711 28.2819ZM149.273 24.9273C149.329 25.3783 149.433 25.7448 149.583 26.0267C149.752 26.2898 149.912 26.4589 150.062 26.5341C150.231 26.6093 150.382 26.7033 150.513 26.816C150.645 26.9288 150.711 27.0697 150.711 27.2389C150.711 27.859 149.649 28.1691 147.525 28.1691C146.661 28.1691 146.012 28.0658 145.58 27.859C145.167 27.6523 144.903 27.3046 144.791 26.816C144.077 27.7933 142.883 28.2819 141.211 28.2819C139.632 28.2819 138.345 27.9154 137.348 27.1825C136.371 26.4495 135.883 25.3877 135.883 23.997C135.883 22.6439 136.371 21.5914 137.348 20.8397C138.326 20.0692 139.528 19.6839 140.957 19.6839C142.066 19.6839 143.015 19.9188 143.804 20.3886V20.3041C143.616 18.4435 143.4 17.1844 143.156 16.5266C142.93 15.8688 142.479 15.5399 141.803 15.5399C141.37 15.5399 141.023 15.7373 140.759 16.1319C140.496 16.5266 140.299 16.9588 140.167 17.4287C140.055 17.8985 139.829 18.3308 139.491 18.7254C139.153 19.1201 138.702 19.3174 138.138 19.3174C137.555 19.3174 137.076 19.1483 136.7 18.81C136.343 18.4717 136.164 18.0301 136.164 17.4851C136.164 16.395 136.709 15.5775 137.799 15.0325C138.89 14.4687 140.224 14.1868 141.803 14.1868C143.682 14.1868 145.232 14.7036 146.454 15.7373C147.694 16.7521 148.427 18.1334 148.653 19.8812L149.273 24.9273ZM142.761 26.8442C143.193 26.8442 143.541 26.6375 143.804 26.224C144.086 25.8106 144.227 25.3407 144.227 24.8145L144.114 23.5178C143.926 21.9579 143.344 21.178 142.366 21.178C141.934 21.178 141.586 21.3565 141.323 21.7136C141.06 22.0519 140.929 22.5123 140.929 23.0949C140.929 24.1473 141.088 25.04 141.408 25.773C141.746 26.4871 142.197 26.8442 142.761 26.8442ZM159.725 14.1868C160.533 14.1868 161.172 14.4499 161.642 14.9761C162.131 15.5023 162.375 16.1695 162.375 16.9776C162.375 18.7442 161.652 19.6275 160.205 19.6275C159.622 19.6275 159.18 19.496 158.88 19.2328C158.579 18.9509 158.4 18.6409 158.344 18.3026C158.306 17.9643 158.212 17.6636 158.062 17.4005C157.912 17.1186 157.686 16.9776 157.386 16.9776C156.69 16.9776 156.342 17.8797 156.342 19.6839V24.9273C156.342 25.3971 156.587 25.8669 157.075 26.3368C157.583 26.7878 157.837 27.1261 157.837 27.3516V27.4644C157.837 27.8215 157.611 28 157.16 28H151.099C150.648 28 150.423 27.8215 150.423 27.4644V27.3516C150.423 27.1261 150.61 26.7878 150.986 26.3368C151.362 25.8669 151.55 25.3971 151.55 24.9273V19.3174C151.55 18.9415 151.437 18.6221 151.212 18.359C150.986 18.0958 150.761 17.8703 150.535 17.6824C150.31 17.4945 150.197 17.2877 150.197 17.0622V16.9776C150.197 16.6581 150.413 16.3856 150.845 16.1601L154.82 14.2996C155.196 14.168 155.459 14.1586 155.61 14.2714C155.76 14.3841 155.835 14.6003 155.835 14.9197V16.9776C156.474 15.1171 157.771 14.1868 159.725 14.1868ZM173.348 23.5459C173.555 23.3392 173.78 23.2828 174.025 23.3768C174.288 23.452 174.41 23.6399 174.391 23.9406C174.353 24.8803 173.808 25.8388 172.756 26.816C171.704 27.7933 170.341 28.2819 168.668 28.2819C166.62 28.2819 164.947 27.6241 163.651 26.3086C162.354 24.993 161.705 23.2734 161.705 21.1498C161.705 19.1201 162.382 17.4569 163.735 16.1601C165.107 14.8446 166.742 14.1868 168.64 14.1868C170.35 14.1868 171.675 14.5815 172.615 15.3708C173.555 16.1601 174.025 17.0528 174.025 18.0489C174.025 18.8382 173.658 19.4208 172.925 19.7967L167.315 22.954C168.086 24.1755 169.157 24.7863 170.529 24.7863C171.112 24.7863 171.657 24.6736 172.164 24.448C172.69 24.2037 173.085 23.903 173.348 23.5459ZM168.133 15.5681C167.569 15.5681 167.109 15.85 166.751 16.4138C166.413 16.9776 166.244 17.6824 166.244 18.5281C166.244 19.6557 166.385 20.6424 166.667 21.4881L169.289 19.9094C169.777 19.5711 170.022 19.0919 170.022 18.4717C170.022 17.8515 169.862 17.2125 169.542 16.5548C169.242 15.897 168.772 15.5681 168.133 15.5681ZM186.013 23.5459C186.219 23.3392 186.445 23.2828 186.689 23.3768C186.952 23.452 187.074 23.6399 187.056 23.9406C187.018 24.8803 186.473 25.8388 185.421 26.816C184.368 27.7933 183.006 28.2819 181.333 28.2819C179.285 28.2819 177.612 27.6241 176.315 26.3086C175.018 24.993 174.37 23.2734 174.37 21.1498C174.37 19.1201 175.047 17.4569 176.4 16.1601C177.772 14.8446 179.407 14.1868 181.305 14.1868C183.015 14.1868 184.34 14.5815 185.28 15.3708C186.219 16.1601 186.689 17.0528 186.689 18.0489C186.689 18.8382 186.323 19.4208 185.59 19.7967L179.98 22.954C180.75 24.1755 181.822 24.7863 183.194 24.7863C183.776 24.7863 184.321 24.6736 184.829 24.448C185.355 24.2037 185.75 23.903 186.013 23.5459ZM180.797 15.5681C180.234 15.5681 179.773 15.85 179.416 16.4138C179.078 16.9776 178.909 17.6824 178.909 18.5281C178.909 19.6557 179.05 20.6424 179.332 21.4881L181.953 19.9094C182.442 19.5711 182.686 19.0919 182.686 18.4717C182.686 17.8515 182.526 17.2125 182.207 16.5548C181.906 15.897 181.436 15.5681 180.797 15.5681ZM196.563 14.1868C197.371 14.1868 198.01 14.4499 198.48 14.9761C198.969 15.5023 199.213 16.1695 199.213 16.9776C199.213 18.7442 198.489 19.6275 197.042 19.6275C196.46 19.6275 196.018 19.496 195.717 19.2328C195.417 18.9509 195.238 18.6409 195.182 18.3026C195.144 17.9643 195.05 17.6636 194.9 17.4005C194.749 17.1186 194.524 16.9776 194.223 16.9776C193.528 16.9776 193.18 17.8797 193.18 19.6839V24.9273C193.18 25.3971 193.425 25.8669 193.913 26.3368C194.421 26.7878 194.674 27.1261 194.674 27.3516V27.4644C194.674 27.8215 194.449 28 193.998 28H187.937C187.486 28 187.26 27.8215 187.26 27.4644V27.3516C187.26 27.1261 187.448 26.7878 187.824 26.3368C188.2 25.8669 188.388 25.3971 188.388 24.9273V19.3174C188.388 18.9415 188.275 18.6221 188.05 18.359C187.824 18.0958 187.599 17.8703 187.373 17.6824C187.148 17.4945 187.035 17.2877 187.035 17.0622V16.9776C187.035 16.6581 187.251 16.3856 187.683 16.1601L191.658 14.2996C192.034 14.168 192.297 14.1586 192.447 14.2714C192.598 14.3841 192.673 14.6003 192.673 14.9197V16.9776C193.312 15.1171 194.609 14.1868 196.563 14.1868Z" fill="#0F1F2E"/>
<path fill-rule="evenodd" clip-rule="evenodd" d="M13.1754 6.04983C13.8918 5.30471 15.0841 5.30471 15.8006 6.04983C18.3733 8.72757 21.9436 10.2502 25.6714 10.2502C26.1876 10.2502 26.4537 9.633 26.0992 9.25774L25.2514 8.36004C22.6787 5.6823 19.1084 4.15967 15.3805 4.15967H14.9605H14.0154H13.5954C9.86756 4.15967 6.29725 5.6823 3.72452 8.36004L2.87669 9.25774C2.52227 9.633 2.78832 10.2502 3.30449 10.2502C7.03231 10.2502 10.6026 8.72757 13.1754 6.04983ZM16.1154 11.8254C15.225 10.9062 13.7506 10.9062 12.8601 11.8254C9.70984 15.1331 5.29946 17.0233 0.731558 17.0233C0.0931621 17.0233 -0.237782 16.2617 0.197807 15.795L1.2566 14.6606C4.45938 11.3528 8.81727 9.51515 13.3852 9.51515H13.9102H15.0653H15.5904C20.1583 9.51515 24.5686 11.3528 27.7189 14.6606L28.764 15.7555C29.2007 16.213 28.8764 16.9708 28.244 16.9708C23.6761 16.9708 19.2657 15.1331 16.1154 11.8254ZM16.1154 17.7959C15.225 16.8768 13.7506 16.8768 12.8601 17.7959C9.70984 21.1037 5.29946 22.9939 0.731558 22.9939C0.0931621 22.9939 -0.237782 22.2323 0.197807 21.7656L1.2566 20.6312C4.45938 17.3234 8.81727 15.4857 13.3852 15.4857H13.9102H15.0653H15.5904C20.1583 15.4857 24.5686 17.3234 27.7189 20.6312L28.764 21.7261C29.2007 22.1836 28.8764 22.9414 28.244 22.9414C23.6761 22.9414 19.2657 21.1037 16.1154 17.7959ZM21.8775 29.4811C21.805 30.7627 20.4016 31.3374 19.2055 30.8713L15.5764 29.4571C15.0151 29.2384 14.3919 29.2399 13.8316 29.4612L10.2096 30.8924C9.01613 31.3641 7.61027 30.7966 7.5309 29.5157C7.50929 29.1671 7.51597 28.8163 7.55144 28.4663C7.66435 27.3521 8.06558 26.2815 8.71958 25.3493C9.37358 24.4171 10.2602 23.652 11.3008 23.1219C12.3414 22.5919 13.504 22.3131 14.6855 22.3103C15.867 22.3076 17.031 22.5809 18.0744 23.1062C19.1178 23.6314 20.0083 24.3923 20.6672 25.3214C21.326 26.2506 21.7328 27.3193 21.8515 28.433C21.8887 28.7824 21.8973 29.1328 21.8775 29.4811Z" fill="url(#paint0_linear_348_321)"/>
<defs>
<linearGradient id="paint0_linear_348_321" x1="20.1907" y1="4.15967" x2="12.8607" y2="29.998" gradientUnits="userSpaceOnUse">
<stop stop-color="#339DFF"/>
<stop offset="1" stop-color="#2783D8"/>
</linearGradient>
</defs>
</svg>
