<svg width="14" height="14" viewBox="0 0 14 14" fill="none" xmlns="http://www.w3.org/2000/svg">
<path fill-rule="evenodd" clip-rule="evenodd" d="M2.91602 3.5C2.91602 2.67504 2.91602 2.26256 3.1723 2.00628C3.42858 1.75 3.84106 1.75 4.66602 1.75H7.33704C8.76137 1.75 9.91602 2.92525 9.91602 4.375C9.91602 5.82475 8.76137 7 7.33704 7H2.91602V3.5Z" stroke="#273643" stroke-width="1.4" stroke-linecap="round" stroke-linejoin="round"/>
<path d="M7.24937 7H7.97159C9.36762 7 10.4993 8.17524 10.4993 9.625C10.4993 11.0748 9.36762 12.25 7.97159 12.25H4.66602C3.84106 12.25 3.42858 12.25 3.1723 11.9937C2.91602 11.7374 2.91602 11.3249 2.91602 10.5V7" stroke="#273643" stroke-width="1.4" stroke-linecap="round" stroke-linejoin="round"/>
</svg>
