<svg width="16" height="24" viewBox="0 0 16 24" fill="none" xmlns="http://www.w3.org/2000/svg">
<path d="M8 5.25C6.66498 5.25 5.35994 5.64588 4.2499 6.38758C3.13987 7.12928 2.27471 8.18349 1.76382 9.41689C1.25292 10.6503 1.11925 12.0075 1.3797 13.3169C1.64015 14.6262 2.28303 15.829 3.22703 16.773C4.17104 17.717 5.37377 18.3598 6.68314 18.6203C7.99252 18.8808 9.34971 18.7471 10.5831 18.2362C11.8165 17.7253 12.8707 16.8601 13.6124 15.7501C14.3541 14.6401 14.75 13.335 14.75 12C14.748 10.2104 14.0362 8.49466 12.7708 7.22922C11.5053 5.96378 9.78961 5.25199 8 5.25ZM13.25 12C13.2511 13.1333 12.8837 14.2363 12.2031 15.1425L4.8575 7.79688C5.63773 7.21388 6.56475 6.85942 7.5349 6.77313C8.50505 6.68685 9.48008 6.87214 10.351 7.30829C11.2218 7.74443 11.9542 8.41424 12.4662 9.24281C12.9781 10.0714 13.2495 11.026 13.25 12ZM2.75 12C2.74892 10.8667 3.11635 9.76374 3.79688 8.8575L11.1425 16.2031C10.3623 16.7861 9.43525 17.1406 8.4651 17.2269C7.49495 17.3132 6.51992 17.1279 5.64906 16.6917C4.77819 16.2556 4.04581 15.5858 3.53384 14.7572C3.02186 13.9286 2.75046 12.974 2.75 12Z" fill="#273643"/>
</svg>
