<svg width="16" height="16" viewBox="0 0 16 16" fill="none" xmlns="http://www.w3.org/2000/svg">
<path d="M7.33398 4H14.0007" stroke="#273643" stroke-width="1.1" stroke-linecap="round"/>
<path d="M7.33398 8H14.0007" stroke="#273643" stroke-width="1.1" stroke-linecap="round"/>
<path d="M7.33398 12H14.0007" stroke="#273643" stroke-width="1.1" stroke-linecap="round"/>
<path d="M2 10H3C3.18586 10 3.27879 10 3.35607 10.0154C3.67343 10.0785 3.9215 10.3266 3.98463 10.6439C4 10.7212 4 10.8141 4 11C4 11.1859 4 11.2788 3.98463 11.3561C3.9215 11.6734 3.67343 11.9215 3.35607 11.9846C3.27879 12 3.18586 12 3 12C2.81414 12 2.72121 12 2.64393 12.0154C2.32657 12.0785 2.0785 12.3266 2.01537 12.6439C2 12.7212 2 12.8141 2 13V13.6C2 13.7885 2 13.8829 2.05858 13.9414C2.11716 14 2.21144 14 2.4 14H4" stroke="#273643" stroke-width="1.1" stroke-linecap="round" stroke-linejoin="round"/>
<path d="M2 2H2.8C2.91046 2 3 2.08954 3 2.2V6M3 6H2M3 6H4" stroke="#273643" stroke-width="1.1" stroke-linecap="round" stroke-linejoin="round"/>
</svg>
