<svg width="71" height="52" viewBox="0 0 71 52" fill="none" xmlns="http://www.w3.org/2000/svg">
	<path d="M6.55172 8.74549L17.7131 6.88525V40.7377L12.8018 41.7717C9.51306 42.464 6.29705 40.3203 5.67081 37.0184L1.64319 15.7819C1.01599 12.4748 3.23148 9.29886 6.55172 8.74549Z" fill="#E7F3FE" stroke="#1388F2" stroke-width="2" />
	<path d="M64.4483 8.74549L53.2869 6.88525V40.7377L58.1982 41.7717C61.4869 42.464 64.703 40.3203 65.3292 37.0184L69.3568 15.7819C69.984 12.4748 67.7685 9.29886 64.4483 8.74549Z" fill="#E7F3FE" stroke="#1388F2" stroke-width="2" />
	<g filter="url(#filter0_dd_644_7220)">
		<rect x="17.5654" y="1" width="35.8689" height="42.7541" rx="5" stroke="#1388F2" stroke-width="2" shape-rendering="crispEdges" />
	</g>
	<path d="M48.4343 43.7541H22.5654C19.804 43.7541 17.5654 41.5155 17.5654 38.7541L17.5654 35.293L29.9722 22.1452L39.4824 33.0891C40.2831 34.0105 41.7153 34.0059 42.51 33.0794L47.7455 26.9765L53.4343 33.0979V38.7541C53.4343 41.5155 51.1957 43.7541 48.4343 43.7541Z" fill="#E7F3FE" stroke="#1388F2" stroke-width="2" />
	<circle cx="40.0897" cy="14.3444" r="4.16393" fill="#E7F3FE" stroke="#1388F2" stroke-width="2" />
	<defs>
		<filter id="filter0_dd_644_7220" x="13.5654" y="0" width="43.8691" height="51.7542" filterUnits="userSpaceOnUse" color-interpolation-filters="sRGB">
			<feFlood flood-opacity="0" result="BackgroundImageFix" />
			<feColorMatrix in="SourceAlpha" type="matrix" values="0 0 0 0 0 0 0 0 0 0 0 0 0 0 0 0 0 0 127 0" result="hardAlpha" />
			<feOffset dy="2" />
			<feGaussianBlur stdDeviation="1" />
			<feComposite in2="hardAlpha" operator="out" />
			<feColorMatrix type="matrix" values="0 0 0 0 0 0 0 0 0 0 0 0 0 0 0 0 0 0 0.06 0" />
			<feBlend mode="normal" in2="BackgroundImageFix" result="effect1_dropShadow_644_7220" />
			<feColorMatrix in="SourceAlpha" type="matrix" values="0 0 0 0 0 0 0 0 0 0 0 0 0 0 0 0 0 0 127 0" result="hardAlpha" />
			<feOffset dy="4" />
			<feGaussianBlur stdDeviation="1.5" />
			<feComposite in2="hardAlpha" operator="out" />
			<feColorMatrix type="matrix" values="0 0 0 0 0 0 0 0 0 0 0 0 0 0 0 0 0 0 0.07 0" />
			<feBlend mode="normal" in2="effect1_dropShadow_644_7220" result="effect2_dropShadow_644_7220" />
			<feBlend mode="normal" in="SourceGraphic" in2="effect2_dropShadow_644_7220" result="shape" />
		</filter>
	</defs>
</svg>
