<svg width="16" height="16" viewBox="0 0 16 16" fill="none" xmlns="http://www.w3.org/2000/svg">
<path d="M8 1.25C6.66498 1.25 5.35994 1.64588 4.2499 2.38758C3.13987 3.12928 2.27471 4.18349 1.76382 5.41689C1.25292 6.65029 1.11925 8.00749 1.3797 9.31686C1.64015 10.6262 2.28303 11.829 3.22703 12.773C4.17104 13.717 5.37377 14.3598 6.68314 14.6203C7.99252 14.8808 9.34971 14.7471 10.5831 14.2362C11.8165 13.7253 12.8707 12.8601 13.6124 11.7501C14.3541 10.6401 14.75 9.33502 14.75 8C14.748 6.2104 14.0362 4.49466 12.7708 3.22922C11.5053 1.96378 9.78961 1.25199 8 1.25ZM13.25 8C13.2511 9.13331 12.8837 10.2363 12.2031 11.1425L4.8575 3.79688C5.63773 3.21388 6.56475 2.85942 7.5349 2.77313C8.50505 2.68685 9.48008 2.87214 10.351 3.30829C11.2218 3.74443 11.9542 4.41424 12.4662 5.24281C12.9781 6.07137 13.2495 7.02602 13.25 8ZM2.75 8C2.74892 6.86669 3.11635 5.76374 3.79688 4.8575L11.1425 12.2031C10.3623 12.7861 9.43525 13.1406 8.4651 13.2269C7.49495 13.3132 6.51992 13.1279 5.64906 12.6917C4.77819 12.2556 4.04581 11.5858 3.53384 10.7572C3.02186 9.92863 2.75046 8.97398 2.75 8Z" fill="#273643"/>
</svg>
