<svg width="14" height="14" viewBox="0 0 14 14" fill="none" xmlns="http://www.w3.org/2000/svg">
<path d="M5.83398 7.71708C5.91658 7.85236 6.01464 7.9804 6.1281 8.09846C6.83248 8.83154 7.9061 8.94616 8.72592 8.44228C8.87782 8.34889 9.02097 8.23432 9.15152 8.09846L11.0412 6.13181C11.876 5.2629 11.876 3.85411 11.0412 2.98519C10.2062 2.11626 8.85262 2.11627 8.01769 2.98519L7.60148 3.41837" stroke="#1A2C40" stroke-width="1.4" stroke-linecap="round"/>
<path d="M6.39999 10.5817L5.98361 11.015C5.14872 11.8839 3.79507 11.8839 2.96016 11.015C2.12526 10.146 2.12526 8.73728 2.96016 7.86835L4.84983 5.9017C5.68473 5.03277 7.03839 5.03276 7.87326 5.9017C7.98672 6.01971 8.08472 6.14775 8.16732 6.28296" stroke="#1A2C40" stroke-width="1.4" stroke-linecap="round"/>
</svg>
