<svg xmlns="http://www.w3.org/2000/svg" viewBox="0 0 24 24" width="24" height="24" color="#1388f2" fill="none">
    <path opacity="0.4" fill-rule="evenodd" clip-rule="evenodd" d="M11 2C11 1.44772 11.4477 1 12 1C18.0751 1 23 5.92487 23 12C23 18.0751 18.0751 23 12 23C5.92487 23 1 18.0751 1 12C1 11.4477 1.44772 11 2 11C2.55228 11 3 11.4477 3 12C3 16.9706 7.02944 21 12 21C16.9706 21 21 16.9706 21 12C21 7.02944 16.9706 3 12 3C11.4477 3 11 2.55228 11 2ZM9.43434 2.14361C9.63116 2.65963 9.37241 3.23751 8.85639 3.43434C8.68765 3.4987 8.52124 3.5678 8.35731 3.64149C7.85358 3.86791 7.26166 3.64311 7.03524 3.13937C6.80881 2.63564 7.03362 2.04372 7.53735 1.8173C7.73645 1.72781 7.9386 1.64386 8.14361 1.56566C8.65963 1.36883 9.23751 1.62759 9.43434 2.14361ZM5.80331 3.96469C6.1824 4.36632 6.16414 4.99922 5.76252 5.37832C5.62995 5.50345 5.50103 5.6324 5.37594 5.76499C4.99694 6.16671 4.36404 6.18514 3.96232 5.80614C3.5606 5.42715 3.54218 4.79425 3.92117 4.39253C4.07278 4.23183 4.22902 4.07555 4.38968 3.9239C4.79131 3.5448 5.42421 3.56307 5.80331 3.96469ZM3.14211 7.03001C3.64574 7.25667 3.87028 7.84868 3.64363 8.35231C3.56916 8.5178 3.49936 8.68582 3.43441 8.85621C3.23768 9.37227 2.65985 9.63114 2.14379 9.43441C1.62773 9.23768 1.36887 8.65985 1.56559 8.14379C1.64453 7.93673 1.72934 7.73257 1.81981 7.53153C2.04646 7.0279 2.63848 6.80336 3.14211 7.03001Z" fill="currentColor" />
    <path fill-rule="evenodd" clip-rule="evenodd" d="M12 7C12.5523 7 13 7.44772 13 8V11H16C16.5523 11 17 11.4477 17 12C17 12.5523 16.5523 13 16 13H13V16C13 16.5523 12.5523 17 12 17C11.4477 17 11 16.5523 11 16V13H8C7.44772 13 7 12.5523 7 12C7 11.4477 7.44772 11 8 11H11V8C11 7.44772 11.4477 7 12 7Z" fill="currentColor" />
</svg>