<svg width="22" height="22" viewBox="0 0 22 22" fill="none" xmlns="http://www.w3.org/2000/svg">
<path d="M10.0919 19.2498H8.80761C5.52113 19.2498 3.87789 19.2498 2.85691 18.2094C1.83594 17.1691 1.83594 15.4946 1.83594 12.1457C1.83594 8.79673 1.83594 7.12226 2.85691 6.08188C3.87789 5.0415 5.52113 5.0415 8.80761 5.0415H12.2935C15.5799 5.0415 17.2232 5.0415 18.2442 6.08188C19.0297 6.88234 19.2108 8.05816 19.2526 10.0832" stroke="#1388F2" stroke-width="1.375" stroke-linecap="round"/>
<path opacity="0.4" d="M8.80761 5.0415H12.2935C15.5799 5.0415 17.2232 5.0415 18.2442 6.08188C19.0297 6.88234 19.2108 8.05816 19.2526 10.0832V11.9165C19.2526 13.2578 19.2526 14.3388 19.1899 15.2224C18.8189 13.8461 17.5619 12.8332 16.0684 12.8332C14.283 12.8332 12.8358 14.2805 12.8358 16.0658C12.8358 17.5591 13.8483 18.816 15.2243 19.1871C14.3409 19.2498 13.2601 19.2498 11.9193 19.2498H8.80761C5.52113 19.2498 3.87789 19.2498 2.85691 18.2094C1.83594 17.1691 1.83594 15.4946 1.83594 12.1457C1.83594 8.79673 1.83594 7.12226 2.85691 6.08188C3.87789 5.0415 5.52113 5.0415 8.80761 5.0415Z" fill="#1388F2"/>
<path d="M18.3515 18.3549L20.1693 20.1668M19.3013 16.0661C19.3013 14.2808 17.854 12.8335 16.0686 12.8335C14.2833 12.8335 12.8359 14.2808 12.8359 16.0661C12.8359 17.8515 14.2833 19.2988 16.0686 19.2988C17.854 19.2988 19.3013 17.8515 19.3013 16.0661Z" stroke="#1388F2" stroke-width="1.375" stroke-linecap="round" stroke-linejoin="round"/>
<path d="M14.6641 5.04183L14.573 4.75852C14.1192 3.34681 13.8924 2.64096 13.3522 2.23722C12.8121 1.8335 12.0946 1.8335 10.6596 1.8335H10.4185C8.98352 1.8335 8.26605 1.8335 7.72591 2.23722C7.18577 2.64096 6.95888 3.34681 6.50512 4.75852L6.41406 5.04183" stroke="#1388F2" stroke-width="1.375"/>
</svg>
