<svg width="16" height="17" viewBox="0 0 16 17" fill="none" xmlns="http://www.w3.org/2000/svg">
<path d="M7.99935 2.12936C5.21599 2.12936 2.96231 4.36176 2.96231 7.1123C2.96231 7.87336 3.1347 8.59437 3.44296 9.23942L3.18871 9.39414C2.85369 8.70343 2.66602 7.92945 2.66602 7.1123C2.66602 4.1958 5.05494 1.8335 7.99935 1.8335C10.9437 1.8335 13.3327 4.1958 13.3327 7.1123C13.3327 7.92944 13.145 8.70343 12.81 9.39414L12.5557 9.23942C12.864 8.59438 13.0364 7.87337 13.0364 7.1123C13.0364 4.36176 10.7827 2.12936 7.99935 2.12936Z" fill="#3F4C58" stroke="#3F4C58"/>
<path d="M9.23635 6.65625C8.81875 7.00706 8.40188 7.16666 7.99848 7.16666C7.59508 7.16666 7.17822 7.00706 6.76068 6.65625L5.903 7.67713C6.3298 8.03566 6.81035 8.2988 7.33182 8.42206V10.6667H4.66602C4.5053 10.6667 4.35438 10.7439 4.2604 10.8743C4.16642 11.0047 4.14086 11.1723 4.19168 11.3248L4.63898 12.6667H11.3597L11.807 11.3248C11.8579 11.1723 11.8323 11.0047 11.7383 10.8743C11.6443 10.7439 11.4934 10.6667 11.3327 10.6667H8.66515V8.42206C9.18668 8.2988 9.66722 8.03566 10.094 7.67713L9.23635 6.65625Z" fill="#3F4C58"/>
<path d="M6.19335 15.3247L5.64062 13.6665H10.3614L9.80871 15.3247C9.74064 15.5288 9.54958 15.6666 9.33438 15.6666H6.66771C6.45248 15.6666 6.26141 15.5288 6.19335 15.3247Z" fill="#3F4C58"/>
</svg>
