<svg width="18" height="18" viewBox="0 0 18 18" fill="none" xmlns="http://www.w3.org/2000/svg">
<path fill-rule="evenodd" clip-rule="evenodd" d="M14.9129 3.08709C15.279 3.4532 15.279 4.0468 14.9129 4.41291L4.41291 14.9129C4.0468 15.279 3.4532 15.279 3.08709 14.9129C2.72097 14.5468 2.72097 13.9532 3.08709 13.5871L13.5871 3.08709C13.9532 2.72097 14.5468 2.72097 14.9129 3.08709Z" fill="#6F7982"/>
<path fill-rule="evenodd" clip-rule="evenodd" d="M3.08709 3.08709C3.4532 2.72097 4.0468 2.72097 4.41291 3.08709L14.9129 13.5871C15.279 13.9532 15.279 14.5468 14.9129 14.9129C14.5468 15.279 13.9532 15.279 13.5871 14.9129L3.08709 4.41291C2.72097 4.0468 2.72097 3.4532 3.08709 3.08709Z" fill="#6F7982"/>
</svg>
