<svg xmlns="http://www.w3.org/2000/svg" viewBox="0 0 24 24" width="24" height="24" color="#1388f2" fill="none">
    <path opacity="0.4" d="M17.2693 2.32287C18.5745 2.67059 19.6271 2.95101 20.4252 3.28231C21.2538 3.62623 21.9134 4.06567 22.336 4.79352C22.759 5.52199 22.8122 6.31139 22.6972 7.19861C22.5866 8.05231 22.3044 9.09953 21.9548 10.3967L20.903 14.2997C20.5535 15.597 20.2713 16.6442 19.9379 17.4385C19.5913 18.2641 19.1488 18.92 18.4179 19.3396C17.6876 19.7589 16.8966 19.8117 16.0061 19.6976C15.1484 19.5877 14.0958 19.3073 12.7907 18.9595L11.7306 18.677C10.4254 18.3293 9.37284 18.0489 8.57468 17.7176C7.74612 17.3737 7.08645 16.9342 6.66385 16.2064C6.24088 15.4779 6.18771 14.6885 6.30269 13.8013C6.41332 12.9476 6.69553 11.9004 7.04511 10.6032L7.04511 10.6032L8.09685 6.70016C8.4464 5.40287 8.72858 4.35566 9.06201 3.5614C9.40858 2.73583 9.85111 2.07986 10.582 1.66025C11.3123 1.241 12.1033 1.18818 12.9938 1.30229C13.8515 1.4122 14.9041 1.69265 16.2093 2.04043L17.2693 2.32287Z" fill="currentColor" />
    <path d="M17 7C17 7.82843 16.3284 8.5 15.5 8.5C14.6716 8.5 14 7.82843 14 7C14 6.17157 14.6716 5.5 15.5 5.5C16.3284 5.5 17 6.17157 17 7Z" fill="currentColor" />
    <path fill-rule="evenodd" clip-rule="evenodd" d="M6.4247 5.96656C6.58139 6.49615 6.27908 7.05249 5.74949 7.20917C4.16178 7.67891 3.67116 7.99964 3.42994 8.4151C3.27579 8.68059 3.19906 9.0304 3.28685 9.72268C3.37837 10.4444 3.62421 11.3754 3.98943 12.7462L5.00179 16.5459C5.36703 17.9168 5.61699 18.8466 5.89648 19.5175C6.16466 20.1613 6.40442 20.424 6.66765 20.5751C6.93172 20.7267 7.28257 20.8022 7.97966 20.7109C8.70491 20.616 9.64085 20.366 11.017 19.9951L11.4897 19.8678C12.023 19.7241 12.5718 20.0399 12.7155 20.5731C12.8592 21.1064 12.5434 21.6552 12.0101 21.7989L11.4696 21.9445C10.1784 22.2925 9.11286 22.5796 8.23925 22.694C7.32225 22.814 6.46836 22.7668 5.6719 22.3096C4.87461 21.8519 4.40515 21.1385 4.05028 20.2866C3.71269 19.4763 3.42979 18.4143 3.08741 17.1292L2.03867 13.1929C1.6962 11.9076 1.41325 10.8457 1.30274 9.97429C1.18654 9.05805 1.23873 8.20589 1.70034 7.41087C2.38635 6.22933 3.65428 5.74336 5.18209 5.29135C5.71168 5.13467 6.26802 5.43697 6.4247 5.96656Z" fill="currentColor" />
</svg>