<svg width="22" height="22" viewBox="0 0 22 22" fill="none" xmlns="http://www.w3.org/2000/svg">
<path d="M6.41406 16.5C4.73754 16.8774 3.66406 17.4573 3.66406 18.1076C3.66406 19.2448 6.94731 20.1667 10.9974 20.1667C15.0475 20.1667 18.3307 19.2448 18.3307 18.1076C18.3307 17.4573 17.2572 16.8774 15.5807 16.5" stroke="#1388F2" stroke-width="1.375" stroke-linecap="round"/>
<path opacity="0.4" fill-rule="evenodd" clip-rule="evenodd" d="M11.0028 16.5002C11.4328 16.5002 11.846 16.3337 12.1552 16.036C12.3711 15.828 12.5925 15.6181 12.8164 15.4057C15.5366 12.8256 18.6377 9.88431 16.9303 5.77858C15.9299 3.37288 13.5284 1.8335 11.0028 1.8335C8.47713 1.8335 6.07561 3.37287 5.07517 5.77858C3.37469 9.86762 6.44159 12.7871 9.14706 15.3626C9.38542 15.5895 9.621 15.8138 9.85026 16.036C10.1595 16.3337 10.5727 16.5002 11.0028 16.5002ZM11.0026 10.5418C12.2682 10.5418 13.2943 9.5158 13.2943 8.25016C13.2943 6.98451 12.2682 5.9585 11.0026 5.9585C9.73696 5.9585 8.71094 6.98451 8.71094 8.25016C8.71094 9.5158 9.73696 10.5418 11.0026 10.5418Z" fill="#1388F2"/>
<path d="M13.2943 8.25016C13.2943 9.5158 12.2682 10.5418 11.0026 10.5418C9.73696 10.5418 8.71094 9.5158 8.71094 8.25016C8.71094 6.98451 9.73696 5.9585 11.0026 5.9585C12.2682 5.9585 13.2943 6.98451 13.2943 8.25016Z" stroke="#1388F2" stroke-width="1.375"/>
<path d="M12.1552 16.036C11.846 16.3337 11.4328 16.5002 11.0028 16.5002C10.5727 16.5002 10.1595 16.3337 9.85026 16.036C7.01905 13.2926 3.22486 10.2279 5.07517 5.77858C6.07561 3.37287 8.47713 1.8335 11.0028 1.8335C13.5284 1.8335 15.9299 3.37288 16.9303 5.77858C18.7783 10.2223 14.9934 13.302 12.1552 16.036Z" stroke="#1388F2" stroke-width="1.375"/>
</svg>
