<svg width="22" height="22" viewBox="0 0 22 22" fill="none" xmlns="http://www.w3.org/2000/svg">
<path opacity="0.4" fill-rule="evenodd" clip-rule="evenodd" d="M2.801 5.05333C1.83594 6.13579 1.83594 7.75715 1.83594 10.9998C1.83594 14.2425 1.83594 15.8639 2.801 16.9463C2.95536 17.1195 3.12549 17.2796 3.30944 17.4248C4.45956 18.3332 6.18224 18.3332 9.6276 18.3332H12.3776C15.823 18.3332 17.5457 18.3332 18.6957 17.4248C18.8797 17.2796 19.0498 17.1195 19.2042 16.9463C20.1693 15.8639 20.1693 14.2425 20.1693 10.9998C20.1693 7.75715 20.1693 6.13579 19.2042 5.05333C19.0498 4.8802 18.8797 4.72007 18.6957 4.5748C17.5457 3.6665 15.823 3.6665 12.3776 3.6665H9.6276C6.18224 3.6665 4.45956 3.6665 3.30944 4.5748C3.12549 4.72007 2.95536 4.8802 2.801 5.05333ZM11.0494 13.2915C12.315 13.2915 13.341 12.2655 13.341 10.9998C13.341 9.7342 12.315 8.70817 11.0494 8.70817C9.78371 8.70817 8.75768 9.7342 8.75768 10.9998C8.75768 12.2655 9.78371 13.2915 11.0494 13.2915Z" fill="#1388F2"/>
<path d="M1.83594 10.9998C1.83594 7.75715 1.83594 6.13579 2.801 5.05333C2.95536 4.8802 3.12549 4.72007 3.30944 4.5748C4.45956 3.6665 6.18224 3.6665 9.6276 3.6665H12.3776C15.823 3.6665 17.5457 3.6665 18.6957 4.5748C18.8797 4.72007 19.0498 4.8802 19.2042 5.05333C20.1693 6.13579 20.1693 7.75715 20.1693 10.9998C20.1693 14.2425 20.1693 15.8639 19.2042 16.9463C19.0498 17.1195 18.8797 17.2796 18.6957 17.4248C17.5457 18.3332 15.823 18.3332 12.3776 18.3332H9.6276C6.18224 18.3332 4.45956 18.3332 3.30944 17.4248C3.12549 17.2796 2.95536 17.1195 2.801 16.9463C1.83594 15.8639 1.83594 14.2425 1.83594 10.9998Z" stroke="#1388F2" stroke-width="1.375" stroke-linecap="round" stroke-linejoin="round"/>
<path d="M13.3412 11.0002C13.3412 12.2658 12.3151 13.2918 11.0495 13.2918C9.78385 13.2918 8.75781 12.2658 8.75781 11.0002C8.75781 9.73452 9.78385 8.7085 11.0495 8.7085C12.3151 8.7085 13.3412 9.73452 13.3412 11.0002Z" stroke="#1388F2" stroke-width="1.375"/>
<path d="M4.58594 11H5.5026" stroke="#1388F2" stroke-width="1.375" stroke-linecap="round"/>
<path d="M16.5 11H17.4167" stroke="#1388F2" stroke-width="1.375" stroke-linecap="round"/>
</svg>
