<svg width="16" height="16" viewBox="0 0 16 16" fill="none" xmlns="http://www.w3.org/2000/svg">
<path fill-rule="evenodd" clip-rule="evenodd" d="M8 16C12.4183 16 16 12.4183 16 8C16 3.58172 12.4183 0 8 0C3.58172 0 0 3.58172 0 8C0 12.4183 3.58172 16 8 16ZM9 4C9 3.44772 8.55228 3 8 3C7.44772 3 7 3.44772 7 4C7 4.55228 7.44772 5 8 5C8.55229 5 9 4.55228 9 4ZM9 7.5C9 6.94772 8.55228 6.5 8 6.5C7.44772 6.5 7 6.94772 7 7.5V11.5C7 12.0523 7.44772 12.5 8 12.5C8.55229 12.5 9 12.0523 9 11.5V7.5Z" fill="#019939"/>
</svg>
