
<svg width="20" height="20" viewBox="0 0 20 20" fill="none" xmlns="http://www.w3.org/2000/svg">
<path opacity="0.4" d="M12.4993 1.0415C12.7916 1.0415 13.0448 1.24405 13.1091 1.52915L13.558 3.52214C13.8858 4.97715 15.022 6.11341 16.477 6.44117L18.47 6.89011C18.7552 6.95434 18.9577 7.20758 18.9577 7.49984C18.9577 7.7921 18.7552 8.04534 18.47 8.10956L16.477 8.5585C15.022 8.88625 13.8858 10.0225 13.558 11.4775L13.1091 13.4705C13.0448 13.7557 12.7916 13.9582 12.4993 13.9582C12.2071 13.9582 11.9538 13.7557 11.8896 13.4705L11.4407 11.4775C11.1129 10.0225 9.97668 8.88625 8.52168 8.5585L6.52867 8.10956C6.24356 8.04534 6.04102 7.7921 6.04102 7.49984C6.04102 7.20758 6.24356 6.95434 6.52867 6.89011L8.52168 6.44117C9.97668 6.11341 11.1129 4.97715 11.4407 3.52214L11.8896 1.52915C11.9538 1.24405 12.2071 1.0415 12.4993 1.0415Z" fill="black"/>
<path d="M5.83268 9.375C6.12494 9.375 6.37818 9.5775 6.44241 9.86267L6.76307 11.2862C6.98204 12.2582 7.74112 13.0173 8.7131 13.2363L10.1367 13.5569C10.4218 13.6212 10.6243 13.8744 10.6243 14.1667C10.6243 14.4589 10.4218 14.7122 10.1367 14.7764L8.7131 15.0971C7.74112 15.316 6.98204 16.0751 6.76307 17.0471L6.44241 18.4707C6.37818 18.7558 6.12494 18.9583 5.83268 18.9583C5.54042 18.9583 5.28718 18.7558 5.22296 18.4707L4.90229 17.0471C4.68332 16.0751 3.92425 15.316 2.95222 15.0971L1.52867 14.7764C1.24356 14.7122 1.04102 14.4589 1.04102 14.1667C1.04102 13.8744 1.24356 13.6212 1.52867 13.5569L2.95222 13.2363C3.92425 13.0173 4.68332 12.2582 4.90229 11.2862L5.22296 9.86267C5.28718 9.5775 5.54042 9.375 5.83268 9.375Z" fill="black"/>
</svg>
