<svg width="16" height="16" viewBox="0 0 16 16" fill="none" xmlns="http://www.w3.org/2000/svg">
<path d="M1.33203 10.667C1.33203 9.10773 1.33203 8.32813 1.68968 7.75893C1.87617 7.46213 2.12714 7.21113 2.42396 7.02466C2.99314 6.66699 3.77277 6.66699 5.33203 6.66699H10.6654C12.2246 6.66699 13.0042 6.66699 13.5734 7.02466C13.8702 7.21113 14.1212 7.46213 14.3077 7.75893C14.6654 8.32813 14.6654 9.10773 14.6654 10.667C14.6654 12.2263 14.6654 13.0059 14.3077 13.5751C14.1212 13.8719 13.8702 14.1229 13.5734 14.3093C13.0042 14.667 12.2246 14.667 10.6654 14.667H5.33203C3.77277 14.667 2.99314 14.667 2.42396 14.3093C2.12714 14.1229 1.87617 13.8719 1.68968 13.5751C1.33203 13.0059 1.33203 12.2263 1.33203 10.667Z" stroke="#0F1F2E" stroke-width="1.4" stroke-linecap="round" stroke-linejoin="round"/>
<path d="M13.3346 6.66667C13.3346 5.73325 13.3346 5.26653 13.153 4.91001C12.9932 4.59641 12.7382 4.34145 12.4246 4.18165C12.0681 4 11.6014 4 10.668 4H5.33464C4.40122 4 3.9345 4 3.57798 4.18165C3.26438 4.34145 3.00942 4.59641 2.84962 4.91001C2.66797 5.26653 2.66797 5.73325 2.66797 6.66667" stroke="#0F1F2E" stroke-width="1.4" stroke-linecap="round" stroke-linejoin="round"/>
<path d="M12 3.99967C12 2.74259 12 2.11405 11.6095 1.72353C11.2189 1.33301 10.5904 1.33301 9.33333 1.33301H6.66667C5.40959 1.33301 4.78105 1.33301 4.39053 1.72353C4 2.11405 4 2.74259 4 3.99967" stroke="#0F1F2E" stroke-width="1.4" stroke-linecap="round" stroke-linejoin="round"/>
<path d="M10 9.33301C10 10.0694 9.40307 10.6663 8.66667 10.6663H7.33333C6.59695 10.6663 6 10.0694 6 9.33301" stroke="#0F1F2E" stroke-width="1.4" stroke-linecap="round"/>
</svg>
