<svg width="22" height="22" viewBox="0 0 22 22" fill="none" xmlns="http://www.w3.org/2000/svg">
<path opacity="0.4" d="M2.75 20.1668V6.15763C2.75 3.85611 2.75 2.70535 3.47525 2.13438C4.20051 1.56343 5.26847 1.87342 7.40439 2.49339L11.9877 3.82378C13.2766 4.19791 13.9211 4.38498 14.2939 4.89484C14.6667 5.40471 14.6667 6.09914 14.6667 7.48802V20.1668H9.16667C10.0309 20.1668 10.463 20.1668 10.7315 19.8983C11 19.6298 11 19.1977 11 18.3335V17.4168C11 16.5526 11 16.1205 10.7315 15.852C10.463 15.5835 10.0309 15.5835 9.16667 15.5835H8.25C7.38576 15.5835 6.95364 15.5835 6.68515 15.852C6.41667 16.1205 6.41667 16.5526 6.41667 17.4168V18.3335C6.41667 19.1977 6.41667 19.6298 6.68515 19.8983C6.95364 20.1668 7.38576 20.1668 8.25 20.1668H2.75Z" fill="#1388F2"/>
<path d="M14.668 9.1665L16.6383 9.75757C17.897 10.1352 18.5264 10.3241 18.8889 10.8112C19.2513 11.2983 19.2513 11.9555 19.2513 13.2696V20.1665" stroke="#1388F2" stroke-width="1.375" stroke-linejoin="round"/>
<path d="M7.33203 8.25H10.082M7.33203 11.9167H10.082" stroke="#1388F2" stroke-width="1.375" stroke-linecap="round" stroke-linejoin="round"/>
<path d="M11.0013 20.1668V17.4168C11.0013 16.5526 11.0013 16.1205 10.7328 15.852C10.4643 15.5835 10.0322 15.5835 9.16797 15.5835H8.2513C7.38706 15.5835 6.95494 15.5835 6.68645 15.852C6.41797 16.1205 6.41797 16.5526 6.41797 17.4168V20.1668" stroke="#1388F2" stroke-width="1.375" stroke-linejoin="round"/>
<path d="M9.16797 15.5835H8.2513C7.38706 15.5835 6.95494 15.5835 6.68645 15.852C6.41797 16.1205 6.41797 16.5526 6.41797 17.4168V18.3335C6.41797 19.1977 6.41797 19.6298 6.68645 19.8983C6.95494 20.1668 7.38706 20.1668 8.2513 20.1668H9.16797C10.0322 20.1668 10.4643 20.1668 10.7328 19.8983C11.0013 19.6298 11.0013 19.1977 11.0013 18.3335V17.4168C11.0013 16.5526 11.0013 16.1205 10.7328 15.852C10.4643 15.5835 10.0322 15.5835 9.16797 15.5835Z" stroke="#1388F2" stroke-width="1.375" stroke-linejoin="round"/>
<path d="M1.83203 20.1665H20.1654" stroke="#1388F2" stroke-width="1.375" stroke-linecap="round"/>
<path d="M2.75 20.1668V6.15764C2.75 3.85611 2.75 2.70535 3.47525 2.13439C4.20051 1.56342 5.26847 1.87342 7.40439 2.49341L11.9877 3.82378C13.2766 4.19792 13.9211 4.38499 14.2939 4.89484C14.6667 5.40471 14.6667 6.09915 14.6667 7.48802V20.1668" stroke="#1388F2" stroke-width="1.375" stroke-linecap="round" stroke-linejoin="round"/>
</svg>
