<svg width="22" height="22" viewBox="0 0 22 22" fill="none" xmlns="http://www.w3.org/2000/svg">
<path opacity="0.4" d="M5.90603 12.2692C4.78592 12.0319 3.82508 11.4158 3.20703 10.5669V12.3754C3.20703 15.8323 3.20703 17.5608 4.22131 18.6348C5.23559 19.7087 6.86804 19.7087 10.133 19.7087H11.8644C15.1294 19.7087 16.7618 19.7087 17.7761 18.6348C18.7904 17.5608 18.7904 15.8323 18.7904 12.3754V10.5669C18.1723 11.4158 17.2115 12.0319 16.0913 12.2692C15.5902 12.3754 15.0016 12.3754 13.8244 12.3754H12.832V12.8335C12.832 13.8461 12.0112 14.6669 10.9987 14.6669C9.98615 14.6669 9.16536 13.8461 9.16536 12.8335V12.3754H8.17301C6.99578 12.3754 6.40716 12.3754 5.90603 12.2692Z" fill="#1388F2"/>
<path d="M9.16797 12.2222C9.16797 11.938 9.16797 11.7959 9.19923 11.6794C9.28393 11.3631 9.53106 11.116 9.8474 11.0313C9.96391 11 10.106 11 10.3902 11H11.6124C11.8966 11 12.0387 11 12.1552 11.0313C12.4715 11.116 12.7187 11.3631 12.8034 11.6794C12.8346 11.7959 12.8346 11.938 12.8346 12.2222V12.8333C12.8346 13.8459 12.0139 14.6667 11.0013 14.6667C9.98875 14.6667 9.16797 13.8459 9.16797 12.8333V12.2222Z" stroke="#1388F2" stroke-width="1.375" stroke-linecap="round" stroke-linejoin="round"/>
<path d="M12.743 12.3752H13.827C15.0042 12.3752 15.5928 12.3752 16.0939 12.269C17.5445 11.9617 18.7279 11.0191 19.2457 9.75854C19.4246 9.32303 19.4976 8.79606 19.6436 7.74205C19.6984 7.34637 19.7259 7.14854 19.6995 6.98671C19.6227 6.51541 19.2451 6.12934 18.7362 6.00217C18.5615 5.9585 18.3406 5.9585 17.8987 5.9585H4.10395C3.66202 5.9585 3.44105 5.9585 3.26635 6.00217C2.75755 6.12934 2.37984 6.51541 2.30309 6.98671C2.27673 7.14854 2.30414 7.34637 2.35895 7.74205C2.50497 8.79606 2.57798 9.32303 2.75688 9.75854C3.27472 11.0191 4.45811 11.9617 5.90863 12.269C6.40976 12.3752 6.99838 12.3752 8.17561 12.3752H9.25963" stroke="#1388F2" stroke-width="1.375"/>
<path d="M3.20703 10.5415V12.3748C3.20703 15.8318 3.20703 17.5603 4.22131 18.6342C5.23559 19.7082 6.86804 19.7082 10.133 19.7082H11.8644C15.1294 19.7082 16.7618 19.7082 17.7761 18.6342C18.7904 17.5603 18.7904 15.8318 18.7904 12.3748V10.5415" stroke="#1388F2" stroke-width="1.375" stroke-linecap="round" stroke-linejoin="round"/>
<path d="M14.2096 5.95817L14.1388 5.63439C13.7859 4.02101 13.6094 3.21432 13.1893 2.75291C12.7692 2.2915 12.2112 2.2915 11.0951 2.2915H10.9075C9.79139 2.2915 9.23342 2.2915 8.8133 2.75291C8.39318 3.21432 8.21672 4.02101 7.8638 5.63439L7.79297 5.95817" stroke="#1388F2" stroke-width="1.375"/>
</svg>
