<svg width="17" height="18" viewBox="0 0 17 18" fill="none" xmlns="http://www.w3.org/2000/svg">
<path d="M12.5972 1.94678V3.34644M4.19922 1.94678V3.34644" stroke="#3F4C58" stroke-width="1.46964" stroke-linecap="round" stroke-linejoin="round"/>
<path d="M2.09961 6.14575H14.6966" stroke="#3F4C58" stroke-width="1.46964" stroke-linecap="round" stroke-linejoin="round"/>
<path d="M1.75 9.1154C1.75 6.06606 1.75 4.54137 2.62627 3.59405C3.50254 2.64673 4.91288 2.64673 7.73355 2.64673H9.06323C11.8839 2.64673 13.2943 2.64673 14.1705 3.59405C15.0468 4.54137 15.0468 6.06606 15.0468 9.1154V9.47484C15.0468 12.5242 15.0468 14.0489 14.1705 14.9962C13.2943 15.9435 11.8839 15.9435 9.06323 15.9435H7.73355C4.91288 15.9435 3.50254 15.9435 2.62627 14.9962C1.75 14.0489 1.75 12.5242 1.75 9.47484V9.1154Z" stroke="#3F4C58" stroke-width="1.46964" stroke-linecap="round" stroke-linejoin="round"/>
<path d="M6.29883 11.0446H10.4978M8.39832 8.94507V13.1441" stroke="#3F4C58" stroke-width="1.46964" stroke-linecap="round" stroke-linejoin="round"/>
</svg>
