<svg width="16" height="16" viewBox="0 0 16 16" fill="none" xmlns="http://www.w3.org/2000/svg">
<path d="M1.66699 8.00008C1.66699 5.01452 1.66699 3.52174 2.59449 2.59424C3.52199 1.66675 5.01477 1.66675 8.00033 1.66675C10.9859 1.66675 12.4787 1.66675 13.4062 2.59424C14.3337 3.52174 14.3337 5.01452 14.3337 8.00008C14.3337 10.9856 14.3337 12.4784 13.4062 13.4059C12.4787 14.3334 10.9859 14.3334 8.00033 14.3334C5.01477 14.3334 3.52199 14.3334 2.59449 13.4059C1.66699 12.4784 1.66699 10.9856 1.66699 8.00008Z" stroke="#0F1F2E" stroke-width="1.2"/>
<path d="M8.34646 9.66999C7.98999 9.31872 6.66532 8.46612 6.66866 7.96919C6.71879 7.47692 7.99446 6.68325 8.32859 6.33422M11.3346 7.99459L6.67259 8.01959M4.65137 5.35376L4.67993 10.6817" stroke="#0F1F2E" stroke-width="1.2" stroke-linecap="round" stroke-linejoin="round"/>
</svg>
