<svg width="60" height="60" viewBox="0 0 60 60" fill="none" xmlns="http://www.w3.org/2000/svg">
<g filter="url(#filter0_d_2580_19882)">
<rect x="2" y="1" width="56" height="56" rx="8" fill="#E62872"/>
<path fill-rule="evenodd" clip-rule="evenodd" d="M30 17C23.3753 17 18 22.3753 18 29C18 35.6248 23.3753 41 30 41C36.6117 41 42 35.6248 42 29C42 22.3753 36.6117 17 30 17ZM37.9262 22.5315C39.3579 24.2755 40.217 26.5011 40.243 28.9089C39.9046 28.8439 36.5206 28.154 33.1106 28.5835C33.0325 28.4143 32.9675 28.2321 32.8894 28.0499C32.6811 27.5554 32.4469 27.0477 32.2126 26.5662C35.9869 25.0304 37.705 22.8178 37.9262 22.5315ZM30 18.7701C32.603 18.7701 34.9848 19.7462 36.7939 21.3471C36.6117 21.6074 35.0629 23.6768 31.4186 25.0434C29.7397 21.9588 27.8786 19.4338 27.5922 19.0434C28.3601 18.8612 29.1671 18.7701 30 18.7701ZM25.6399 19.7332C25.9132 20.0976 27.7354 22.6356 29.4404 25.6551C24.6508 26.9306 20.4208 26.9046 19.9653 26.9046C20.6291 23.7289 22.7766 21.0868 25.6399 19.7332ZM19.744 29.0131C19.744 28.9089 19.744 28.8048 19.744 28.7007C20.1866 28.7136 25.1584 28.7787 30.2733 27.243C30.5727 27.8156 30.846 28.4013 31.1063 28.9869C30.9761 29.026 30.8329 29.0651 30.7028 29.1041C25.4187 30.8091 22.6074 35.4685 22.3731 35.859C20.7462 34.0499 19.744 31.6421 19.744 29.0131ZM30 39.256C27.6312 39.256 25.4447 38.449 23.7137 37.0954C23.8959 36.718 25.9783 32.7094 31.757 30.692C31.783 30.679 31.7961 30.679 31.8221 30.666C33.2668 34.4013 33.8525 37.5379 34.0087 38.436C32.7722 38.9696 31.4186 39.256 30 39.256ZM35.7136 37.4989C35.6096 36.8742 35.0629 33.8807 33.7223 30.1974C36.9371 29.6898 39.7484 30.5228 40.0998 30.6399C39.6573 33.4902 38.0173 35.9501 35.7136 37.4989Z" fill="white"/>
</g>
<defs>
<filter id="filter0_d_2580_19882" x="0" y="0" width="60" height="60" filterUnits="userSpaceOnUse" color-interpolation-filters="sRGB">
<feFlood flood-opacity="0" result="BackgroundImageFix"/>
<feColorMatrix in="SourceAlpha" type="matrix" values="0 0 0 0 0 0 0 0 0 0 0 0 0 0 0 0 0 0 127 0" result="hardAlpha"/>
<feOffset dy="1"/>
<feGaussianBlur stdDeviation="1"/>
<feColorMatrix type="matrix" values="0 0 0 0 0.0627451 0 0 0 0 0.0941176 0 0 0 0 0.156863 0 0 0 0.05 0"/>
<feBlend mode="normal" in2="BackgroundImageFix" result="effect1_dropShadow_2580_19882"/>
<feBlend mode="normal" in="SourceGraphic" in2="effect1_dropShadow_2580_19882" result="shape"/>
</filter>
</defs>
</svg>
