<svg width="36" height="36" viewBox="0 0 36 36" fill="none" xmlns="http://www.w3.org/2000/svg">
<g filter="url(#filter0_d_3556_6429)">
<rect x="2" y="1" width="32" height="32" rx="8" fill="#E62872"/>
<path fill-rule="evenodd" clip-rule="evenodd" d="M18 9C13.5835 9 10 12.5835 10 17C10 21.4165 13.5835 25 18 25C22.4078 25 26 21.4165 26 17C26 12.5835 22.4078 9 18 9ZM23.2842 12.6876C24.2386 13.8503 24.8113 15.3341 24.8287 16.9392C24.6031 16.8959 22.347 16.436 20.0737 16.7224C20.0217 16.6095 19.9783 16.488 19.9263 16.3666C19.7874 16.0369 19.6313 15.6985 19.475 15.3774C21.9913 14.3536 23.1367 12.8785 23.2842 12.6876ZM18 10.18C19.7353 10.18 21.3232 10.8308 22.5293 11.8981C22.4078 12.0716 21.3752 13.4512 18.9458 14.3622C17.8265 12.3059 16.5857 10.6226 16.3948 10.3623C16.9067 10.2408 17.4447 10.18 18 10.18ZM15.0933 10.8221C15.2755 11.0651 16.4903 12.7571 17.6269 14.7701C14.4338 15.6204 11.6139 15.6031 11.3102 15.6031C11.7527 13.4859 13.1844 11.7245 15.0933 10.8221ZM11.1627 17.0087C11.1627 16.9393 11.1627 16.8698 11.1627 16.8004C11.4577 16.8091 14.7722 16.8525 18.1822 15.8286C18.3818 16.2104 18.564 16.6009 18.7375 16.9913C18.6508 17.0174 18.5553 17.0434 18.4685 17.0694C14.9458 18.206 13.0716 21.3124 12.9154 21.5726C11.8308 20.3666 11.1627 18.7614 11.1627 17.0087ZM18 23.8373C16.4208 23.8373 14.9631 23.2993 13.8091 22.3969C13.9306 22.1453 15.3188 19.4729 19.1713 18.128C19.1887 18.1193 19.1974 18.1193 19.2148 18.1107C20.1779 20.6009 20.5683 22.692 20.6725 23.2907C19.8482 23.6464 18.9458 23.8373 18 23.8373ZM21.8091 22.6659C21.7397 22.2494 21.3752 20.2538 20.4816 17.7983C22.6248 17.4599 24.4989 18.0152 24.7332 18.0933C24.4382 19.9935 23.3449 21.6334 21.8091 22.6659Z" fill="white"/>
</g>
<defs>
<filter id="filter0_d_3556_6429" x="0" y="0" width="36" height="36" filterUnits="userSpaceOnUse" color-interpolation-filters="sRGB">
<feFlood flood-opacity="0" result="BackgroundImageFix"/>
<feColorMatrix in="SourceAlpha" type="matrix" values="0 0 0 0 0 0 0 0 0 0 0 0 0 0 0 0 0 0 127 0" result="hardAlpha"/>
<feOffset dy="1"/>
<feGaussianBlur stdDeviation="1"/>
<feColorMatrix type="matrix" values="0 0 0 0 0.0627451 0 0 0 0 0.0941176 0 0 0 0 0.156863 0 0 0 0.05 0"/>
<feBlend mode="normal" in2="BackgroundImageFix" result="effect1_dropShadow_3556_6429"/>
<feBlend mode="normal" in="SourceGraphic" in2="effect1_dropShadow_3556_6429" result="shape"/>
</filter>
</defs>
</svg>
