<svg width="17" height="18" viewBox="0 0 17 18" fill="none" xmlns="http://www.w3.org/2000/svg">
<path d="M11.1976 12.4441H6.29883" stroke="#3F4C58" stroke-width="1.46964" stroke-linecap="round" stroke-linejoin="round"/>
<path d="M11.1971 9.64502H9.09766" stroke="#3F4C58" stroke-width="1.46964" stroke-linecap="round" stroke-linejoin="round"/>
<path d="M14.3463 10.3447C14.3463 12.9839 14.3463 14.3036 13.4752 15.1235C12.604 15.9434 11.2019 15.9434 8.39778 15.9434H7.85702C5.57471 15.9434 4.43356 15.9434 3.64108 15.3851C3.41402 15.2251 3.21244 15.0354 3.04247 14.8216C2.44922 14.0758 2.44922 13.0017 2.44922 10.8537V9.07231C2.44922 6.99861 2.44922 5.96175 2.7774 5.13363C3.30498 3.80232 4.42074 2.7522 5.83525 2.25565C6.71513 1.94678 7.81678 1.94678 10.0201 1.94678C11.2792 1.94678 11.9087 1.94678 12.4114 2.12327C13.2198 2.40702 13.8573 3.00709 14.1588 3.76783C14.3463 4.24105 14.3463 4.83354 14.3463 6.01852V10.3447Z" stroke="#3F4C58" stroke-width="1.46964" stroke-linejoin="round"/>
<path d="M2.44922 8.94508C2.44922 7.65677 3.49363 6.61232 4.78199 6.61232C5.24793 6.61232 5.79724 6.69396 6.25026 6.57257C6.65277 6.46472 6.96716 6.15032 7.07503 5.74781C7.19638 5.29479 7.11478 4.74548 7.11478 4.27954C7.11478 2.99119 8.15921 1.94678 9.44752 1.94678" stroke="#3F4C58" stroke-width="1.57462" stroke-linecap="round" stroke-linejoin="round"/>
</svg>
