<svg width="16" height="16" viewBox="0 0 16 16" fill="none" xmlns="http://www.w3.org/2000/svg">
<g clip-path="url(#clip0_1111_505)">
<path d="M7.99967 14.6668C11.6816 14.6668 14.6663 11.6821 14.6663 8.00016C14.6663 4.31826 11.6816 1.3335 7.99967 1.3335C4.31778 1.3335 1.33301 4.31826 1.33301 8.00016C1.33301 11.6821 4.31778 14.6668 7.99967 14.6668Z" stroke="#57636D" stroke-width="1.4"/>
<path d="M6.66699 5.99984C6.66699 5.26346 7.26393 4.6665 8.00033 4.6665C8.73673 4.6665 9.33366 5.26346 9.33366 5.99984C9.33366 6.26527 9.25613 6.51259 9.12239 6.72037C8.72393 7.33964 8.00033 7.9301 8.00033 8.6665V8.99984" stroke="#57636D" stroke-width="1.4" stroke-linecap="round"/>
<path d="M7.99512 11.3335H8.00112" stroke="#57636D" stroke-width="1.4" stroke-linecap="round" stroke-linejoin="round"/>
</g>
<defs>
<clipPath id="clip0_1111_505">
<rect width="16" height="16" fill="white"/>
</clipPath>
</defs>
</svg>
