<svg width="16" height="16" viewBox="0 0 16 16" fill="none" xmlns="http://www.w3.org/2000/svg">
<g clip-path="url(#clip0_1111_478)">
<path d="M9.99999 11.3333C9.46699 11.7482 8.76685 11.9999 7.99999 11.9999C7.23319 11.9999 6.53302 11.7482 6 11.3333" stroke="#0F1F2E" stroke-width="1.4" stroke-linecap="round"/>
<path d="M1.56727 8.80892C1.33192 7.27739 1.21425 6.51167 1.50379 5.83284C1.79332 5.154 2.43569 4.68954 3.72043 3.76063L4.68033 3.06659C6.27853 1.91103 7.07766 1.33325 7.99966 1.33325C8.92173 1.33325 9.72079 1.91103 11.319 3.06659L12.2789 3.76063C13.5637 4.68954 14.2061 5.154 14.4956 5.83284C14.7851 6.51167 14.6675 7.27739 14.4321 8.80892L14.2314 10.1149C13.8978 12.2859 13.7309 13.3714 12.9523 14.019C12.1737 14.6666 11.0355 14.6666 8.75886 14.6666H7.24046C4.9639 14.6666 3.82561 14.6666 3.04701 14.019C2.2684 13.3714 2.10159 12.2859 1.76796 10.1149L1.56727 8.80892Z" stroke="#0F1F2E" stroke-width="1.4" stroke-linejoin="round"/>
</g>
<defs>
<clipPath id="clip0_1111_478">
<rect width="16" height="16" fill="white"/>
</clipPath>
</defs>
</svg>
