<svg width="22" height="22" viewBox="0 0 22 22" fill="none" xmlns="http://www.w3.org/2000/svg">
<path opacity="0.4" d="M13.2533 18.2368L13.3549 17.7065H8.64062L8.74223 18.2368C8.85333 18.8167 8.9089 19.1068 9.03338 19.3359C9.22579 19.6902 9.53773 19.9571 9.90834 20.0846C10.148 20.1671 10.4312 20.1671 10.9977 20.1671C11.5643 20.1671 11.8476 20.1671 12.0873 20.0846C12.4579 19.9571 12.7697 19.6902 12.9622 19.3359C13.0867 19.1068 13.1422 18.8167 13.2533 18.2368Z" fill="#1388F2"/>
<path opacity="0.4" d="M10.9974 5.0415C7.7067 5.0415 5.03906 7.79364 5.03906 11.1886C5.03906 12.6661 5.95573 14.6665 7.33073 16.5403L8.1475 15.7244H10.9974H14.0524L14.6641 16.5403C16.0391 14.6665 16.9558 12.6978 16.9558 11.1886C16.9558 7.79364 14.2882 5.0415 10.9974 5.0415Z" fill="#1388F2"/>
<path d="M13.315 17.6966C14.2412 17.3969 14.6126 16.5492 14.7171 15.6965C14.7483 15.4419 14.5387 15.2305 14.2821 15.2305L7.77822 15.2307C7.51276 15.2307 7.29956 15.456 7.33126 15.7196C7.4336 16.5705 7.69192 17.1922 8.67344 17.6966M13.315 17.6966C13.315 17.6966 8.83501 17.6966 8.67344 17.6966M13.315 17.6966C13.2036 19.4795 12.6887 20.1855 11.014 20.1657C9.22261 20.1988 8.81055 19.326 8.67344 17.6966" stroke="#1388F2" stroke-width="1.375" stroke-linecap="round" stroke-linejoin="round"/>
<path d="M5.57933 13.7498C5.23245 12.9701 5.03906 12.1027 5.03906 11.1886C5.03906 7.79364 7.7067 5.0415 10.9974 5.0415C14.2882 5.0415 16.9558 7.79364 16.9558 11.1886C16.9558 12.1027 16.7624 12.9701 16.4155 13.7498" stroke="#1388F2" stroke-width="1.375" stroke-linecap="round"/>
<path d="M11 1.8335V2.75016" stroke="#1388F2" stroke-width="1.375" stroke-linecap="round" stroke-linejoin="round"/>
<path d="M20.1667 11H19.25" stroke="#1388F2" stroke-width="1.375" stroke-linecap="round" stroke-linejoin="round"/>
<path d="M2.7526 11H1.83594" stroke="#1388F2" stroke-width="1.375" stroke-linecap="round" stroke-linejoin="round"/>
<path d="M17.4841 4.51904L16.8359 5.16722" stroke="#1388F2" stroke-width="1.375" stroke-linecap="round" stroke-linejoin="round"/>
<path d="M5.16381 5.16723L4.51562 4.51904" stroke="#1388F2" stroke-width="1.375" stroke-linecap="round" stroke-linejoin="round"/>
</svg>
