<svg width="14" height="14" viewBox="0 0 14 14" fill="none" xmlns="http://www.w3.org/2000/svg">
<path d="M6.42176 12.2499H5.60449C3.51309 12.2499 2.4674 12.2499 1.81768 11.5878C1.16797 10.9258 1.16797 9.86024 1.16797 7.72909C1.16797 5.59794 1.16797 4.53237 1.81768 3.87031C2.4674 3.20825 3.51309 3.20825 5.60449 3.20825H7.82275C9.91412 3.20825 10.9599 3.20825 11.6096 3.87031C12.1094 4.3797 12.2247 5.12794 12.2513 6.41659" stroke="#57636D" stroke-width="1.4" stroke-linecap="round"/>
<path d="M11.6778 11.6803L12.8346 12.8334M12.2822 10.2239C12.2822 9.08777 11.3612 8.16675 10.2251 8.16675C9.08894 8.16675 8.16797 9.08777 8.16797 10.2239C8.16797 11.36 9.08894 12.2811 10.2251 12.2811C11.3612 12.2811 12.2822 11.36 12.2822 10.2239Z" stroke="#57636D" stroke-width="1.4" stroke-linecap="round" stroke-linejoin="round"/>
<path d="M9.33205 3.20841L9.27407 3.02813C8.98532 2.12977 8.84095 1.68059 8.49719 1.42367C8.15349 1.16675 7.69691 1.16675 6.78376 1.16675H6.63029C5.71714 1.16675 5.26057 1.16675 4.91685 1.42367C4.57312 1.68059 4.42874 2.12977 4.13998 3.02813L4.08203 3.20841" stroke="#57636D" stroke-width="1.4"/>
</svg>
