<svg width="16" height="16" viewBox="0 0 16 16" fill="none" xmlns="http://www.w3.org/2000/svg">
<g clip-path="url(#clip0_1111_483)">
<path d="M6.66699 8.22212C6.66699 8.01545 6.66699 7.91212 6.68973 7.82739C6.75133 7.59732 6.93106 7.41759 7.16113 7.35599C7.24586 7.33325 7.34919 7.33325 7.55586 7.33325H8.44479C8.65146 7.33325 8.75479 7.33325 8.83953 7.35599C9.06959 7.41759 9.24933 7.59732 9.31093 7.82739C9.33366 7.91212 9.33366 8.01545 9.33366 8.22212V8.66659C9.33366 9.40299 8.73673 9.99992 8.00033 9.99992C7.26393 9.99992 6.66699 9.40299 6.66699 8.66659V8.22212Z" stroke="#57636D" stroke-width="1.4" stroke-linecap="round" stroke-linejoin="round"/>
<path d="M9.20139 8.66667C9.40912 8.60633 9.64472 8.53367 9.92032 8.44867L12.7011 7.59107C13.6909 7.28587 14.1753 6.754 14.2806 5.83318C14.3277 5.42132 14.3513 5.21539 14.3182 5.04681C14.2236 4.56576 13.8196 4.17569 13.2812 4.04559C13.0925 4 12.8557 4 12.3819 4H3.6187C3.14499 4 2.90814 4 2.71946 4.04559C2.18106 4.17569 1.77706 4.56576 1.68248 5.04681C1.64933 5.21539 1.6729 5.42132 1.72003 5.83318C1.82542 6.754 2.30982 7.28587 3.29954 7.59107L6.0803 8.44867C6.3559 8.53367 6.59155 8.60633 6.79926 8.66667" stroke="#57636D" stroke-width="1.4"/>
<path d="M2.30855 7.33325L2.17772 8.78145C1.94321 11.3774 1.82595 12.6753 2.57823 13.5043C3.33051 14.3333 4.62567 14.3333 7.216 14.3333H8.784C11.3743 14.3333 12.6695 14.3333 13.4218 13.5043C14.1741 12.6753 14.0568 11.3774 13.8223 8.78145L13.6915 7.33325" stroke="#57636D" stroke-width="1.4" stroke-linecap="round" stroke-linejoin="round"/>
<path d="M10.3337 3.66675L10.2821 3.49014C10.0255 2.61011 9.89713 2.1701 9.59159 1.91843C9.28606 1.66675 8.88026 1.66675 8.06853 1.66675H7.93213C7.12039 1.66675 6.71459 1.66675 6.40905 1.91843C6.10351 2.1701 5.97518 2.61011 5.71851 3.49014L5.66699 3.66675" stroke="#57636D" stroke-width="1.4"/>
</g>
<defs>
<clipPath id="clip0_1111_483">
<rect width="16" height="16" fill="white"/>
</clipPath>
</defs>
</svg>
