<svg width="14" height="14" viewBox="0 0 14 14" fill="none" xmlns="http://www.w3.org/2000/svg">
<path d="M7.94366 12.4642C7.69072 12.701 7.35257 12.8334 7.00064 12.8334C6.64872 12.8334 6.31062 12.701 6.05762 12.4642C3.74093 10.2819 0.636277 7.84411 2.15032 4.30488C2.96895 2.39126 4.93403 1.16675 7.00064 1.16675C9.06727 1.16675 11.0323 2.39126 11.851 4.30488C13.3631 7.83967 10.2661 10.2894 7.94366 12.4642Z" stroke="#57636D" stroke-width="1.4"/>
<path d="M9.04036 6.41667C9.04036 7.54425 8.12628 8.45833 6.9987 8.45833C5.87111 8.45833 4.95703 7.54425 4.95703 6.41667C4.95703 5.28908 5.87111 4.375 6.9987 4.375C8.12628 4.375 9.04036 5.28908 9.04036 6.41667Z" stroke="#57636D" stroke-width="1.4"/>
</svg>
