<svg width="20" height="20" viewBox="0 0 20 20" fill="none" xmlns="http://www.w3.org/2000/svg">
<path d="M2.10794 12.3081C1.93073 13.4697 2.72301 14.2761 3.69305 14.6779C7.41202 16.2186 12.5873 16.2186 16.3063 14.6779C17.2763 14.2761 18.0686 13.4697 17.8914 12.3081C17.7825 11.5942 17.244 10.9997 16.845 10.4192C16.3224 9.6495 16.2705 8.80992 16.2704 7.91675C16.2704 4.46497 13.4629 1.66675 9.99968 1.66675C6.53645 1.66675 3.72895 4.46497 3.72895 7.91675C3.72887 8.80992 3.67694 9.6495 3.15435 10.4192C2.75538 10.9997 2.21685 11.5942 2.10794 12.3081Z" stroke="#273643" stroke-width="1.5" stroke-linecap="round" stroke-linejoin="round"/>
<path d="M6.66699 15.8333C7.04907 17.2709 8.39658 18.3333 10.0003 18.3333C11.6041 18.3333 12.9516 17.2709 13.3337 15.8333" stroke="#273643" stroke-width="1.5" stroke-linecap="round" stroke-linejoin="round"/>
</svg>
