<svg width="16" height="16" viewBox="0 0 16 16" fill="none" xmlns="http://www.w3.org/2000/svg">
<path d="M2.66699 7.33325V13.9999" stroke="#0F1F2E" stroke-width="1.4" stroke-linecap="round" stroke-linejoin="round"/>
<path d="M12.667 8.66675V14.0001" stroke="#0F1F2E" stroke-width="1.4" stroke-linecap="round" stroke-linejoin="round"/>
<path d="M12.667 2V4.66667" stroke="#0F1F2E" stroke-width="1.4" stroke-linecap="round" stroke-linejoin="round"/>
<path d="M7.66699 2V8.66667" stroke="#0F1F2E" stroke-width="1.4" stroke-linecap="round" stroke-linejoin="round"/>
<path d="M2.66699 2V3.33333" stroke="#0F1F2E" stroke-width="1.4" stroke-linecap="round" stroke-linejoin="round"/>
<path d="M7.66699 12.6667V14.0001" stroke="#0F1F2E" stroke-width="1.4" stroke-linecap="round" stroke-linejoin="round"/>
<path d="M1.33301 6.33325C1.33301 6.02263 1.33301 5.86731 1.38375 5.7448C1.45141 5.58145 1.5812 5.45166 1.74455 5.384C1.86707 5.33325 2.02238 5.33325 2.33301 5.33325H2.99967C3.3103 5.33325 3.46561 5.33325 3.58813 5.384C3.75148 5.45166 3.88127 5.58145 3.94893 5.7448C3.99967 5.86731 3.99967 6.02263 3.99967 6.33325C3.99967 6.64388 3.99967 6.79919 3.94893 6.92172C3.88127 7.08505 3.75148 7.21485 3.58813 7.28252C3.46561 7.33325 3.3103 7.33325 2.99967 7.33325H2.33301C2.02238 7.33325 1.86707 7.33325 1.74455 7.28252C1.5812 7.21485 1.45141 7.08505 1.38375 6.92172C1.33301 6.79919 1.33301 6.64388 1.33301 6.33325Z" stroke="#0F1F2E" stroke-width="1.4" stroke-linecap="round" stroke-linejoin="round"/>
<path d="M11.333 7.66675C11.333 7.35615 11.333 7.20081 11.3837 7.07828C11.4514 6.91495 11.5812 6.78515 11.7445 6.71748C11.8671 6.66675 12.0224 6.66675 12.333 6.66675H12.9997C13.3103 6.66675 13.4656 6.66675 13.5881 6.71748C13.7515 6.78515 13.8813 6.91495 13.9489 7.07828C13.9997 7.20081 13.9997 7.35615 13.9997 7.66675C13.9997 7.97735 13.9997 8.13268 13.9489 8.25521C13.8813 8.41855 13.7515 8.54835 13.5881 8.61601C13.4656 8.66675 13.3103 8.66675 12.9997 8.66675H12.333C12.0224 8.66675 11.8671 8.66675 11.7445 8.61601C11.5812 8.54835 11.4514 8.41855 11.3837 8.25521C11.333 8.13268 11.333 7.97735 11.333 7.66675Z" stroke="#0F1F2E" stroke-width="1.4" stroke-linecap="round" stroke-linejoin="round"/>
<path d="M6.33301 9.66675C6.33301 9.35615 6.33301 9.20081 6.38375 9.07828C6.45141 8.91495 6.5812 8.78515 6.74454 8.71748C6.86707 8.66675 7.02241 8.66675 7.33301 8.66675H7.99967C8.31027 8.66675 8.46561 8.66675 8.58814 8.71748C8.75147 8.78515 8.88127 8.91495 8.94894 9.07828C8.99967 9.20081 8.99967 9.35615 8.99967 9.66675C8.99967 9.97735 8.99967 10.1327 8.94894 10.2552C8.88127 10.4185 8.75147 10.5483 8.58814 10.616C8.46561 10.6667 8.31027 10.6667 7.99967 10.6667H7.33301C7.02241 10.6667 6.86707 10.6667 6.74454 10.616C6.5812 10.5483 6.45141 10.4185 6.38375 10.2552C6.33301 10.1327 6.33301 9.97735 6.33301 9.66675Z" stroke="#0F1F2E" stroke-width="1.4" stroke-linecap="round" stroke-linejoin="round"/>
</svg>
