<svg width="16" height="16" viewBox="0 0 16 16" fill="none" xmlns="http://www.w3.org/2000/svg">
<g clip-path="url(#clip0_1712_14426)">
<path d="M7.99967 14.6666C11.6816 14.6666 14.6663 11.6818 14.6663 7.99992C14.6663 4.31802 11.6816 1.33325 7.99967 1.33325C4.31778 1.33325 1.33301 4.31802 1.33301 7.99992C1.33301 11.6818 4.31778 14.6666 7.99967 14.6666Z" stroke="#0F1F2E" stroke-width="1.4"/>
<path d="M5 11.3334C6.55447 9.70528 9.4288 9.62861 11 11.3334M9.6634 6.33341C9.6634 7.25388 8.91613 8.00008 7.99433 8.00008C7.0726 8.00008 6.32531 7.25388 6.32531 6.33341C6.32531 5.41294 7.0726 4.66675 7.99433 4.66675C8.91613 4.66675 9.6634 5.41294 9.6634 6.33341Z" stroke="#0F1F2E" stroke-width="1.4" stroke-linecap="round"/>
</g>
<defs>
<clipPath id="clip0_1712_14426">
<rect width="16" height="16" fill="white"/>
</clipPath>
</defs>
</svg>
