<svg width="16" height="16" viewBox="0 0 16 16" fill="none" xmlns="http://www.w3.org/2000/svg">
<path d="M5.33203 6.77747L8.08083 4.02863C8.83076 3.27873 9.2057 2.90377 9.6195 2.60177C10.4685 1.98214 11.4532 1.57425 12.4917 1.41206C12.9979 1.33301 13.5282 1.33301 14.5887 1.33301C14.6441 1.33301 14.6654 1.35842 14.6654 1.4097C14.6654 2.47023 14.6654 3.00051 14.5863 3.50665C14.4241 4.54513 14.0162 5.52985 13.3966 6.37886C13.0946 6.79267 12.7196 7.16761 11.9698 7.91754L9.2209 10.6663" stroke="#0F1F2E" stroke-width="1.4" stroke-linecap="round" stroke-linejoin="round"/>
<path d="M6.8927 5.39859C5.75742 5.39859 4.33055 5.15811 3.26823 5.59813C2.48984 5.92055 1.91706 6.66714 1.33203 7.25214L3.53601 8.19667C4.12008 8.44701 3.76304 9.18407 3.66634 9.66754C3.5586 10.2063 3.5646 10.2261 3.95308 10.6146L5.38375 12.0453C5.77223 12.4337 5.79208 12.4398 6.3308 12.332C6.8143 12.2353 7.55136 11.8783 7.80163 12.4623L8.74623 14.6663C9.33123 14.0813 10.0778 13.5085 10.4002 12.7301C10.8403 11.6678 10.5998 10.2409 10.5998 9.10567" stroke="#0F1F2E" stroke-width="1.4" stroke-linejoin="round"/>
<path d="M7.9987 13.333L7.33203 13.9997" stroke="#0F1F2E" stroke-width="1.4" stroke-linecap="round" stroke-linejoin="round"/>
<path d="M2.66667 8L2 8.66667" stroke="#0F1F2E" stroke-width="1.4" stroke-linecap="round" stroke-linejoin="round"/>
<path d="M10 2.71973C10.8 2.83973 11.64 3.15973 12.1076 3.63973C12.7051 4.16783 13.12 4.87973 13.28 5.99973" stroke="#0F1F2E" stroke-width="1.4" stroke-linecap="square"/>
<path d="M11.96 4.04004L11 5.00004" stroke="#0F1F2E" stroke-width="1.4" stroke-linecap="round"/>
</svg>
