<svg width="16" height="16" viewBox="0 0 16 16" fill="none" xmlns="http://www.w3.org/2000/svg">
<path d="M10.3337 7.99984C10.3337 9.2885 9.28899 10.3332 8.00033 10.3332C6.71166 10.3332 5.66699 9.2885 5.66699 7.99984C5.66699 6.71117 6.71166 5.6665 8.00033 5.6665C9.28899 5.6665 10.3337 6.71117 10.3337 7.99984Z" stroke="#57636D" stroke-width="1.4"/>
<path d="M14.007 9.39787C14.3549 9.30407 14.5289 9.25714 14.5976 9.16741C14.6663 9.07774 14.6663 8.93341 14.6663 8.64481V7.35567C14.6663 7.06707 14.6663 6.92274 14.5976 6.83307C14.5289 6.74334 14.3549 6.69641 14.007 6.60259C12.7067 6.25193 11.8929 4.89255 12.2285 3.60079C12.3208 3.24553 12.3669 3.06791 12.3229 2.96373C12.2788 2.85955 12.1524 2.78777 11.8995 2.64418L10.7497 1.99136C10.5015 1.85047 10.3775 1.78002 10.2661 1.79502C10.1547 1.81002 10.0291 1.93536 9.77781 2.18603C8.80501 3.15653 7.19541 3.15649 6.22257 2.18597C5.97129 1.93529 5.84566 1.80996 5.73429 1.79495C5.62293 1.77995 5.49885 1.8504 5.25069 1.99129L4.1009 2.64412C3.84803 2.78769 3.72159 2.85948 3.67753 2.96364C3.63346 3.06781 3.67959 3.24545 3.77184 3.60074C4.10725 4.89254 3.29282 6.25196 1.99235 6.60261C1.64442 6.69641 1.47045 6.74334 1.40173 6.83301C1.33301 6.92274 1.33301 7.06707 1.33301 7.35567V8.64481C1.33301 8.93341 1.33301 9.07774 1.40173 9.16741C1.47044 9.25714 1.64441 9.30407 1.99235 9.39787C3.29261 9.74854 4.10639 11.1079 3.77082 12.3997C3.67853 12.7549 3.63239 12.9325 3.67645 13.0367C3.72051 13.1409 3.84695 13.2127 4.09984 13.3563L5.24964 14.0091C5.49781 14.15 5.6219 14.2205 5.73327 14.2055C5.84465 14.1905 5.97026 14.0651 6.22148 13.8144C7.19481 12.8431 8.80554 12.8431 9.77894 13.8143C10.0301 14.0651 10.1557 14.1904 10.2671 14.2054C10.3785 14.2204 10.5026 14.1499 10.7507 14.0091L11.9005 13.3562C12.1535 13.2127 12.2799 13.1409 12.3239 13.0367C12.368 12.9325 12.3219 12.7549 12.2295 12.3996C11.8938 11.1079 12.7069 9.74861 14.007 9.39787Z" stroke="#57636D" stroke-width="1.4" stroke-linecap="round"/>
</svg>
