<svg width="17" height="18" viewBox="0 0 17 18" fill="none" xmlns="http://www.w3.org/2000/svg">
<path d="M12.247 4.04626C12.8268 4.04626 13.2968 4.51625 13.2968 5.09601C13.2968 5.67576 12.8268 6.14575 12.247 6.14575C11.6673 6.14575 11.1973 5.67576 11.1973 5.09601C11.1973 4.51625 11.6673 4.04626 12.247 4.04626Z" stroke="#3F4C58" stroke-width="1.46964" stroke-linecap="round" stroke-linejoin="round"/>
<path d="M1.94125 8.34596C1.23921 9.13005 1.22411 10.313 1.86841 11.1451C3.14697 12.7965 4.54637 14.1958 6.19769 15.4744C7.02983 16.1187 8.21276 16.1036 8.99685 15.4016C11.1256 13.4955 13.075 11.5036 14.9565 9.31452C15.1425 9.09814 15.2588 8.8329 15.2849 8.5487C15.4004 7.29207 15.6376 3.67163 14.6544 2.68842C13.6712 1.7052 10.0507 1.94242 8.79411 2.05788C8.5099 2.084 8.24467 2.20035 8.02821 2.38635C5.83923 4.26774 3.84729 6.21722 1.94125 8.34596Z" stroke="#3F4C58" stroke-width="1.46964"/>
<path d="M4.89941 10.3447L6.99891 12.4442" stroke="#3F4C58" stroke-width="1.46964" stroke-linecap="round" stroke-linejoin="round"/>
</svg>
