<svg width="19" height="19" viewBox="0 0 19 19" fill="none" xmlns="http://www.w3.org/2000/svg">
<path d="M9.89551 1.5835H10.1114C12.6932 1.5835 13.9841 1.5835 14.8806 2.21512C15.1374 2.39609 15.3654 2.6107 15.5577 2.85245C16.2288 3.69619 16.2288 4.91116 16.2288 7.34107V9.35624C16.2288 11.7021 16.2288 12.875 15.8576 13.8117C15.2608 15.3178 13.9986 16.5057 12.3984 17.0674C11.4032 17.4168 10.1569 17.4168 7.66445 17.4168C6.24018 17.4168 5.52806 17.4168 4.95929 17.2172C4.04492 16.8962 3.32368 16.2174 2.98264 15.3568C2.77051 14.8215 2.77051 14.1513 2.77051 12.8108V9.50016" stroke="#57636D" stroke-width="1.6625" stroke-linecap="round" stroke-linejoin="round"/>
<path d="M16.2292 9.5C16.2292 10.9574 15.0477 12.1389 13.5903 12.1389C13.0632 12.1389 12.4418 12.0466 11.9293 12.1838C11.474 12.3058 11.1183 12.6615 10.9963 13.1168C10.8591 13.6293 10.9514 14.2507 10.9514 14.7778C10.9514 16.2352 9.76988 17.4167 8.3125 17.4167" stroke="#57636D" stroke-width="1.6625" stroke-linecap="round" stroke-linejoin="round"/>
<path d="M3.5625 3.56266C3.95163 3.16232 4.98732 1.5835 5.54167 1.5835M5.54167 1.5835C6.09602 1.5835 7.13171 3.16232 7.52083 3.56266M5.54167 1.5835V7.91683" stroke="#57636D" stroke-width="1.6625" stroke-linecap="round" stroke-linejoin="round"/>
</svg>
