<svg width="22" height="22" viewBox="0 0 22 22" fill="none" xmlns="http://www.w3.org/2000/svg">
<path opacity="0.4" d="M18.7904 7.79167C18.7904 9.05732 17.7643 10.0833 16.4987 10.0833C15.2331 10.0833 14.207 9.05732 14.207 7.79167C14.207 6.52602 15.2331 5.5 16.4987 5.5C17.7643 5.5 18.7904 6.52602 18.7904 7.79167Z" fill="#1388F2"/>
<path opacity="0.4" d="M7.79036 7.79167C7.79036 9.05732 6.76435 10.0833 5.4987 10.0833C4.23305 10.0833 3.20703 9.05732 3.20703 7.79167C3.20703 6.52602 4.23305 5.5 5.4987 5.5C6.76435 5.5 7.79036 6.52602 7.79036 7.79167Z" fill="#1388F2"/>
<path d="M19.0428 16.5C19.7297 16.5 20.276 16.0678 20.7666 15.4633C21.7707 14.2261 20.122 13.2374 19.4933 12.7532C18.854 12.261 18.1403 11.9821 17.4167 11.9167M16.5 10.0833C17.7656 10.0833 18.7917 9.05732 18.7917 7.79167C18.7917 6.52602 17.7656 5.5 16.5 5.5" stroke="#1388F2" stroke-width="1.375" stroke-linecap="round"/>
<path d="M2.95843 16.5C2.27157 16.5 1.72525 16.0678 1.23472 15.4633C0.230548 14.2261 1.87925 13.2374 2.50806 12.7532C3.14727 12.261 3.861 11.9821 4.58463 11.9167M5.04297 10.0833C3.77732 10.0833 2.7513 9.05732 2.7513 7.79167C2.7513 6.52602 3.77732 5.5 5.04297 5.5" stroke="#1388F2" stroke-width="1.375" stroke-linecap="round"/>
<path opacity="0.4" d="M7.41145 13.8521C6.47483 14.4312 4.01904 15.6138 5.51477 17.0936C6.24543 17.8165 7.05919 18.3335 8.08229 18.3335H13.9203C14.9434 18.3335 15.7572 17.8165 16.4878 17.0936C17.9836 15.6138 15.5278 14.4312 14.5912 13.8521C12.3947 12.494 9.60788 12.494 7.41145 13.8521Z" fill="#1388F2"/>
<path d="M7.41145 13.8521C6.47483 14.4312 4.01904 15.6138 5.51477 17.0936C6.24543 17.8165 7.05919 18.3335 8.08229 18.3335H13.9203C14.9434 18.3335 15.7572 17.8165 16.4878 17.0936C17.9836 15.6138 15.5278 14.4312 14.5912 13.8521C12.3947 12.494 9.60788 12.494 7.41145 13.8521Z" stroke="#1388F2" stroke-width="1.375" stroke-linecap="round" stroke-linejoin="round"/>
<path d="M14.2096 6.87484C14.2096 8.64675 12.7732 10.0832 11.0013 10.0832C9.22939 10.0832 7.79297 8.64675 7.79297 6.87484C7.79297 5.10292 9.22939 3.6665 11.0013 3.6665C12.7732 3.6665 14.2096 5.10292 14.2096 6.87484Z" stroke="#1388F2" stroke-width="1.375"/>
</svg>
