<svg width="16" height="16" viewBox="0 0 16 16" fill="none" xmlns="http://www.w3.org/2000/svg">
<g id="view">
<path id="Vector" d="M14.3614 7.36301C14.564 7.64721 14.6654 7.78934 14.6654 7.99967C14.6654 8.21001 14.564 8.35214 14.3614 8.63634C13.4506 9.91341 11.1248 12.6663 7.9987 12.6663C4.87255 12.6663 2.54676 9.91341 1.63606 8.63634C1.43337 8.35214 1.33203 8.21001 1.33203 7.99967C1.33203 7.78934 1.43337 7.64721 1.63606 7.36301C2.54676 6.08597 4.87255 3.33301 7.9987 3.33301C11.1248 3.33301 13.4506 6.08597 14.3614 7.36301Z" stroke="#273643" stroke-width="1.4"/>
<path id="Vector_2" d="M10 8C10 6.8954 9.1046 6 8 6C6.8954 6 6 6.8954 6 8C6 9.1046 6.8954 10 8 10C9.1046 10 10 9.1046 10 8Z" stroke="#273643" stroke-width="1.4"/>
</g>
</svg>
