<svg width="16" height="16" viewBox="0 0 16 16" fill="none" xmlns="http://www.w3.org/2000/svg">
<g clip-path="url(#clip0_990_7)">
<path d="M14.5 0.875058V0.875074L14.504 0.875042C14.6664 0.873743 14.8227 0.936587 14.939 1.04991C15.0544 1.16235 15.1211 1.31547 15.125 1.47643V14.52C15.1221 14.6818 15.0556 14.836 14.9399 14.9492C14.8236 15.0631 14.6668 15.1264 14.504 15.1251V15.1251H14.5H1.5V15.125L1.4949 15.1251C1.33259 15.1267 1.17623 15.064 1.06005 14.9507C0.944601 14.8381 0.878156 14.6846 0.875 14.5234V1.47859C0.877676 1.317 0.943982 1.16295 1.05958 1.04991C1.17581 0.936272 1.33237 0.873378 1.49491 0.875032L1.49491 0.875058H1.5H14.5Z" fill="white" stroke="white"/>
<path d="M2.6325 6.09131H4.89625V13.3751H2.6325V6.09131ZM3.765 2.46631C4.02464 2.46631 4.27845 2.54332 4.49432 2.68759C4.71018 2.83187 4.87841 3.03692 4.97771 3.27683C5.07701 3.51673 5.10293 3.78069 5.05219 4.03532C5.00144 4.28996 4.87632 4.52382 4.69263 4.70733C4.50895 4.89084 4.27497 5.01574 4.02029 5.06624C3.76561 5.11674 3.50167 5.09057 3.26186 4.99104C3.02206 4.89151 2.81716 4.72309 2.67309 4.50709C2.52902 4.29108 2.45225 4.0372 2.4525 3.77756C2.45283 3.42968 2.59126 3.09616 2.83736 2.85029C3.08347 2.60442 3.41712 2.46631 3.765 2.46631ZM6.31625 6.09131H8.48625V7.09131H8.51625C8.81875 6.51881 9.55625 5.91506 10.6575 5.91506C12.95 5.91006 13.375 7.41881 13.375 9.37506V13.3751H11.1112V9.83131C11.1112 8.98756 11.0963 7.90131 9.935 7.90131C8.77375 7.90131 8.57625 8.82131 8.57625 9.77631V13.3751H6.31625V6.09131Z" fill="#0076B2"/>
</g>
<defs>
<clipPath id="clip0_990_7">
<rect width="16" height="16" fill="white"/>
</clipPath>
</defs>
</svg>
