<svg width="24" height="24" viewBox="0 0 24 24" fill="none" xmlns="http://www.w3.org/2000/svg">
<path fill-rule="evenodd" clip-rule="evenodd" d="M17.312 1.93059C15.9686 1.74998 14.2479 1.74999 12.0572 1.75H11.9428C9.75212 1.74999 8.03144 1.74998 6.68803 1.93059C5.31137 2.11568 4.21911 2.50271 3.36092 3.36091C2.50272 4.21911 2.11568 5.31137 1.9306 6.68802C1.74998 8.03144 1.74999 9.75212 1.75 11.9428V12.0572C1.74999 14.2479 1.74998 15.9686 1.9306 17.312C2.11568 18.6886 2.50272 19.7809 3.36092 20.6391C4.21911 21.4973 5.31137 21.8843 6.68803 22.0694C8.03144 22.25 9.75211 22.25 11.9428 22.25H12.0572C14.2479 22.25 15.9686 22.25 17.312 22.0694C18.6887 21.8843 19.7809 21.4973 20.6391 20.6391C21.4973 19.7809 21.8843 18.6886 22.0694 17.312C22.25 15.9686 22.25 14.2479 22.25 12.0572V11.9428C22.25 9.7521 22.25 8.03144 22.0694 6.68802C21.8843 5.31137 21.4973 4.21911 20.6391 3.36091C19.7809 2.50271 18.6887 2.11568 17.312 1.93059ZM7 6.25C6.71836 6.25 6.46045 6.40779 6.33223 6.65856C6.20401 6.90933 6.22709 7.21079 6.392 7.43912L10.2116 12.7278L6.46968 16.4697C6.17678 16.7626 6.17678 17.2374 6.46968 17.5303C6.76257 17.8232 7.23744 17.8232 7.53034 17.5303L11.1012 13.9595L13.6142 17.4391C13.7552 17.6344 13.9814 17.75 14.2222 17.75H17C17.2817 17.75 17.5396 17.5922 17.6678 17.3414C17.796 17.0907 17.7729 16.7892 17.608 16.5609L13.7885 11.2722L17.5304 7.53033C17.8232 7.23744 17.8232 6.76256 17.5304 6.46967C17.2375 6.17678 16.7626 6.17678 16.4697 6.46967L12.8989 10.0405L10.3858 6.56088C10.2448 6.36565 10.0186 6.25 9.77778 6.25H7Z" fill="#57636D"/>
</svg>
